<?xml version="1.0" encoding="UTF-8"?>
<svg version="1.1" xmlns="http://www.w3.org/2000/svg" width="512" height="512">
<path d="M0 0 C2.64645026 1.90372419 5.14734655 3.90355849 7.63671875 6.0078125 C16.83377879 13.76070608 25.73754431 17.70763044 37.9140625 17.34765625 C48.37979785 16.16860505 55.58474293 11.7144591 63.32421875 4.9765625 C72.86413697 -3.08069967 81.67125034 -5.93254853 94.125 -5.3828125 C105.92666167 -4.21692254 114.88938861 1.71997643 122.40625 10.671875 C125.92199674 15.8076227 127.92399804 21.76721188 129.87890625 27.640625 C133.00298404 36.5505509 138.62891494 43.56879429 147.0625 48 C156.28995809 52.02368357 164.96033175 53.2244448 174.875 51 C186.81748132 48.39811144 197.19036281 49.96114969 207.6875 56.125 C216.37748614 61.96742006 221.48118149 69.9764788 224.58984375 79.87890625 C226.05169033 87.43874141 225.12468249 95.17902185 223.45703125 102.60546875 C221.35838957 113.60091619 224.35037846 123.38270586 230.2734375 132.67578125 C235.9192525 140.27591682 242.93290525 143.96318962 251.734375 146.91796875 C262.19375062 150.45739834 270.89310233 156.44579731 276.2890625 166.37109375 C280.61220227 175.841569 281.64494047 186.15544282 279.19921875 196.33203125 C276.6611277 202.98688853 272.84369492 207.98261589 268.21875 213.33984375 C260.58558183 222.49158235 257.44827669 231.00219618 257.6875 242.84375 C258.72628576 253.33548617 263.29243217 260.59265857 270.0234375 268.32421875 C278.08069967 277.86413697 280.93254853 286.67125034 280.3828125 299.125 C279.20117324 311.08608308 273.19189008 319.90860299 264.1171875 327.4765625 C259.76110061 330.61101617 254.95386972 332.3495283 249.890625 334.03515625 C239.81266728 337.52458997 232.10151708 342.42300551 227 352.0625 C222.97631643 361.28995809 221.7755552 369.96033175 224 379.875 C226.60188856 391.81748132 225.03885031 402.19036281 218.875 412.6875 C213.07052973 421.32103981 204.7237398 427.10668067 194.59375 429.58984375 C188.26022182 430.59138059 181.66370249 430.58179198 175.4375 429 C164.77754897 426.35893493 153.88586341 427.93435569 144.38671875 433.54296875 C135.08901073 440.37170557 130.68964442 448.73803007 127.18359375 459.5078125 C123.63735696 469.65354824 116.75931813 476.51312216 107.5546875 481.84375 C98.13535548 486.10693391 87.10757756 486.70088007 77.25 483.5 C71.17610053 480.9549188 66.13814083 477.05889664 61 473 C50.80581648 464.99156409 42.12087027 462.11434126 29 463 C19.03480695 464.70914648 12.11403308 470.16637289 4.625 476.625 C-4.23092879 483.88857645 -12.81610796 485.88342089 -24.125 485.3828125 C-36.08632966 484.20114888 -44.89883533 478.19297607 -52.47265625 469.125 C-55.53071665 464.87030727 -57.26000725 460.20423372 -58.91796875 455.265625 C-62.03911926 446.04230676 -66.72482987 438.45740183 -75 433 C-84.84292781 428.23827449 -94.14102772 426.54070664 -104.9375 429 C-115.1198035 431.24301139 -125.22573727 430.76588407 -134.4453125 425.640625 C-144.17147579 419.41331253 -151.56657031 410.99777898 -154.53515625 399.66796875 C-155.86577456 392.03089058 -155.10634572 384.91769174 -153.4609375 377.41796875 C-151.62649178 367.79490181 -153.52725401 358.13485098 -158.35546875 349.60546875 C-159.79296501 347.58989089 -161.29826227 345.79650763 -163 344 C-163.50144531 343.45859375 -164.00289062 342.9171875 -164.51953125 342.359375 C-170.10985573 336.97307696 -177.39282429 334.53799366 -184.64453125 332.1171875 C-194.73097701 328.59090253 -201.54580741 321.70287907 -206.84375 312.5546875 C-211.1823188 302.96879562 -211.70867382 291.89139984 -208.25 281.9375 C-206.09465994 276.85865371 -203.46525333 272.72526131 -199.88671875 268.51171875 C-190.59975067 257.52239318 -187.02386746 248.4612228 -188 234 C-189.66622385 224.28506774 -194.97093789 217.42613082 -201.125 210 C-209.37418802 199.87384569 -210.90885771 189.77521119 -210 177 C-207.65500801 166.19963688 -201.0839407 157.21853658 -192 151 C-187.26772272 148.64693395 -182.37100725 146.78916661 -177.359375 145.12109375 C-168.4494491 141.99701596 -161.43120571 136.37108506 -157 127.9375 C-152.97631643 118.71004191 -151.7755552 110.03966825 -154 100.125 C-156.60188856 88.18251868 -155.03885031 77.80963719 -148.875 67.3125 C-143.03257994 58.62251386 -135.0235212 53.51881851 -125.12109375 50.41015625 C-118.52333046 49.13434567 -111.3401995 49.541354 -104.8125 51 C-94.17279086 53.36057856 -83.90176125 52.0689488 -74.3828125 46.45703125 C-65.9522701 40.25476353 -61.59490909 32.85490202 -58.1875 23.125 C-53.60655478 10.98383139 -47.0939596 2.47371872 -35 -3 C-23.12540995 -7.03261636 -10.82319761 -6.4074565 0 0 Z " fill="#F8F19C" transform="translate(221,16)"/>
<path d="M0 0 C2.64645026 1.90372419 5.14734655 3.90355849 7.63671875 6.0078125 C16.83377879 13.76070608 25.73754431 17.70763044 37.9140625 17.34765625 C48.37979785 16.16860505 55.58474293 11.7144591 63.32421875 4.9765625 C72.86413697 -3.08069967 81.67125034 -5.93254853 94.125 -5.3828125 C105.92666167 -4.21692254 114.88938861 1.71997643 122.40625 10.671875 C125.92199674 15.8076227 127.92399804 21.76721188 129.87890625 27.640625 C133.00298404 36.5505509 138.62891494 43.56879429 147.0625 48 C156.28995809 52.02368357 164.96033175 53.2244448 174.875 51 C186.81748132 48.39811144 197.19036281 49.96114969 207.6875 56.125 C216.37748614 61.96742006 221.48118149 69.9764788 224.58984375 79.87890625 C226.05169033 87.43874141 225.12468249 95.17902185 223.45703125 102.60546875 C221.35838957 113.60091619 224.35037846 123.38270586 230.2734375 132.67578125 C235.9192525 140.27591682 242.93290525 143.96318962 251.734375 146.91796875 C262.19375062 150.45739834 270.89310233 156.44579731 276.2890625 166.37109375 C280.61220227 175.841569 281.64494047 186.15544282 279.19921875 196.33203125 C276.6611277 202.98688853 272.84369492 207.98261589 268.21875 213.33984375 C260.58558183 222.49158235 257.44827669 231.00219618 257.6875 242.84375 C258.72628576 253.33548617 263.29243217 260.59265857 270.0234375 268.32421875 C278.08069967 277.86413697 280.93254853 286.67125034 280.3828125 299.125 C279.20117324 311.08608308 273.19189008 319.90860299 264.1171875 327.4765625 C259.76110061 330.61101617 254.95386972 332.3495283 249.890625 334.03515625 C239.81266728 337.52458997 232.10151708 342.42300551 227 352.0625 C222.97631643 361.28995809 221.7755552 369.96033175 224 379.875 C226.60188856 391.81748132 225.03885031 402.19036281 218.875 412.6875 C213.07052973 421.32103981 204.7237398 427.10668067 194.59375 429.58984375 C188.26022182 430.59138059 181.66370249 430.58179198 175.4375 429 C164.77754897 426.35893493 153.88586341 427.93435569 144.38671875 433.54296875 C135.08901073 440.37170557 130.68964442 448.73803007 127.18359375 459.5078125 C123.63735696 469.65354824 116.75931813 476.51312216 107.5546875 481.84375 C98.13535548 486.10693391 87.10757756 486.70088007 77.25 483.5 C71.17610053 480.9549188 66.13814083 477.05889664 61 473 C50.80581648 464.99156409 42.12087027 462.11434126 29 463 C19.03480695 464.70914648 12.11403308 470.16637289 4.625 476.625 C-4.23092879 483.88857645 -12.81610796 485.88342089 -24.125 485.3828125 C-36.08632966 484.20114888 -44.89883533 478.19297607 -52.47265625 469.125 C-55.53071665 464.87030727 -57.26000725 460.20423372 -58.91796875 455.265625 C-62.03911926 446.04230676 -66.72482987 438.45740183 -75 433 C-84.84292781 428.23827449 -94.14102772 426.54070664 -104.9375 429 C-115.1198035 431.24301139 -125.22573727 430.76588407 -134.4453125 425.640625 C-144.17147579 419.41331253 -151.56657031 410.99777898 -154.53515625 399.66796875 C-155.86577456 392.03089058 -155.10634572 384.91769174 -153.4609375 377.41796875 C-151.62649178 367.79490181 -153.52725401 358.13485098 -158.35546875 349.60546875 C-159.79296501 347.58989089 -161.29826227 345.79650763 -163 344 C-163.50144531 343.45859375 -164.00289062 342.9171875 -164.51953125 342.359375 C-170.10985573 336.97307696 -177.39282429 334.53799366 -184.64453125 332.1171875 C-194.73097701 328.59090253 -201.54580741 321.70287907 -206.84375 312.5546875 C-211.1823188 302.96879562 -211.70867382 291.89139984 -208.25 281.9375 C-206.09465994 276.85865371 -203.46525333 272.72526131 -199.88671875 268.51171875 C-190.59975067 257.52239318 -187.02386746 248.4612228 -188 234 C-189.66622385 224.28506774 -194.97093789 217.42613082 -201.125 210 C-209.37418802 199.87384569 -210.90885771 189.77521119 -210 177 C-207.65500801 166.19963688 -201.0839407 157.21853658 -192 151 C-187.26772272 148.64693395 -182.37100725 146.78916661 -177.359375 145.12109375 C-168.4494491 141.99701596 -161.43120571 136.37108506 -157 127.9375 C-152.97631643 118.71004191 -151.7755552 110.03966825 -154 100.125 C-156.60188856 88.18251868 -155.03885031 77.80963719 -148.875 67.3125 C-143.03257994 58.62251386 -135.0235212 53.51881851 -125.12109375 50.41015625 C-118.52333046 49.13434567 -111.3401995 49.541354 -104.8125 51 C-94.17279086 53.36057856 -83.90176125 52.0689488 -74.3828125 46.45703125 C-65.9522701 40.25476353 -61.59490909 32.85490202 -58.1875 23.125 C-53.60655478 10.98383139 -47.0939596 2.47371872 -35 -3 C-23.12540995 -7.03261636 -10.82319761 -6.4074565 0 0 Z M5 51 C3.71738281 51.18304688 2.43476563 51.36609375 1.11328125 51.5546875 C-47.2605862 59.47841503 -91.44571833 88.61532958 -120.171875 127.98046875 C-124.08813629 133.48689856 -127.67323072 139.11312432 -131 145 C-131.54865723 145.9580957 -131.54865723 145.9580957 -132.10839844 146.93554688 C-137.62561989 156.6380872 -141.91072451 166.34708212 -145.33251953 176.96533203 C-145.97926982 178.93680858 -146.66662204 180.88834145 -147.37109375 182.83984375 C-150.53392426 191.78399056 -152.60075168 200.64806188 -154 210 C-154.10441406 210.66773438 -154.20882812 211.33546875 -154.31640625 212.0234375 C-158.81768931 241.76609263 -156.27908878 272.68578273 -146 301 C-145.58555717 302.3172651 -145.1768959 303.63636039 -144.7734375 304.95703125 C-138.76808085 324.06169913 -128.03845485 341.13792773 -116 357 C-115.2884375 357.95519531 -114.576875 358.91039062 -113.84375 359.89453125 C-99.20981089 378.66537238 -80.68414044 394.31105552 -60 406 C-59.36126953 406.36577148 -58.72253906 406.73154297 -58.06445312 407.10839844 C-48.3619128 412.62561989 -38.65291788 416.91072451 -28.03466797 420.33251953 C-26.06319142 420.97926982 -24.11165855 421.66662204 -22.16015625 422.37109375 C-13.21839226 425.53308164 -4.35190806 427.6096434 5 429 C5.68368652 429.10441406 6.36737305 429.20882813 7.07177734 429.31640625 C26.55481356 432.18462868 46.09466672 431.89707105 65.47070312 428.44873047 C67.98196682 428.00319932 70.49761729 427.59682318 73.015625 427.19140625 C85.65267877 425.0315111 97.19601182 420.93719443 109 416 C110.17175781 415.5153125 111.34351563 415.030625 112.55078125 414.53125 C126.74864857 408.22823302 139.62882765 400.35853805 152 391 C152.9590625 390.28585937 153.918125 389.57171875 154.90625 388.8359375 C174.58014601 373.48792826 189.34461705 354.44296116 201.81298828 333.03662109 C202.85947094 331.24111341 203.92624571 329.45746556 204.99609375 327.67578125 C209.9956397 318.97946635 213.15398254 309.76621782 216.25390625 300.26806641 C216.87408711 298.3827653 217.52672868 296.50817963 218.1875 294.63671875 C227.24796134 267.91543628 228.20754468 237.69632985 224 210 C223.81695312 208.71738281 223.63390625 207.43476563 223.4453125 206.11328125 C215.83033354 159.62430477 188.13741907 115.1096553 150.1484375 87.23730469 C143.02045825 82.16921418 135.59126443 77.58730141 128.03662109 73.18701172 C126.24111341 72.14052906 124.45746556 71.07375429 122.67578125 70.00390625 C113.97946635 65.0043603 104.76621782 61.84601746 95.26806641 58.74609375 C93.3827653 58.12591289 91.50817963 57.47327132 89.63671875 56.8125 C62.91543628 47.75203866 32.69632985 46.79245532 5 51 Z " fill="#EBCA5F" transform="translate(221,16)"/>
<path d="M0 0 C2 1.125 2 1.125 4.4375 4.0625 C7.54367563 7.77475868 9.3726045 8.86130155 14.140625 9.33984375 C18.93214477 9.53816824 22.17751539 9.29220153 26 6.125 C26.66 5.25875 27.32 4.3925 28 3.5 C30 1.125 30 1.125 32.5 0.0625 C35 0.125 35 0.125 37.375 1.6875 C39 4.125 39 4.125 39.1875 6.875 C37.04716632 12.73275534 32.80698028 17.35023317 27.5 20.625 C21.36462068 23.28007643 14.50232755 23.04091926 8 22.125 C1.86356165 19.66520956 -3.49931575 14.73135899 -7 9.125 C-7.6875 6.4375 -7.6875 6.4375 -7 4.125 C-3.28671329 0.20541958 -3.28671329 0.20541958 0 0 Z " fill="#4D5359" transform="translate(240,265.875)"/>
<path d="M0 0 C3.01111883 0.54045723 3.68729449 0.93366492 5.4375 3.4375 C5.78948866 6.20647746 5.94734434 8.67123919 5.9375 11.4375 C5.96585937 12.16195312 5.99421875 12.88640625 6.0234375 13.6328125 C6.03125 15.75 6.03125 15.75 5.4375 19.4375 C2.94296621 21.52575793 1.58758374 22.50515198 -1.6875 22.3125 C-3.98044217 21.24246032 -5.03088524 20.47823878 -6.5625 18.4375 C-6.99609375 15.22265625 -6.99609375 15.22265625 -7 11.5 C-7.01933594 10.27410156 -7.03867187 9.04820312 -7.05859375 7.78515625 C-6.3806558 3.21040963 -4.6626257 0.79605805 0 0 Z " fill="#4E5359" transform="translate(334.5625,223.5625)"/>
<path d="M0 0 C0.33 0.99 0.66 1.98 1 3 C1.66 3 2.32 3 3 3 C3.10853983 5.22808159 3.18583307 7.45769932 3.25 9.6875 C3.29640625 10.92886719 3.3428125 12.17023438 3.390625 13.44921875 C2.94119343 17.53455169 1.82179677 19.09488246 -1 22 C-3.875 21.6875 -3.875 21.6875 -7 21 C-9.40975706 17.38536441 -9.33239432 14.6778074 -9.3125 10.5 C-9.33666992 9.48486328 -9.33666992 9.48486328 -9.36132812 8.44921875 C-9.36419991 5.53722618 -9.33411274 3.49523812 -7.6796875 1.04296875 C-5.15074342 -0.52732909 -2.90041698 -0.19336113 0 0 Z " fill="#4E5459" transform="translate(181,224)"/>
</svg>
