<svg width="32" height="32" viewBox="0 0 32 32" fill="none" xmlns="http://www.w3.org/2000/svg">
<path d="M16 25C20.9706 25 25 20.9706 25 16C25 11.0294 20.9706 7 16 7C11.0294 7 7 11.0294 7 16C7 20.9706 11.0294 25 16 25Z" fill="#A9E5FF"/>
<path d="M3 20C6.247 20 6.247 21.04 9.494 21.04C12.741 21.04 12.744 20 15.994 20C19.244 20 19.246 21.04 22.494 21.04C25.742 21.04 25.748 20 29 20V28C29 28.2652 28.8946 28.5196 28.7071 28.7071C28.5196 28.8946 28.2652 29 28 29H4C3.73478 29 3.48043 28.8946 3.29289 28.7071C3.10536 28.5196 3 28.2652 3 28V20Z" fill="#A9E5FF"/>
<path d="M29 19C27.7901 18.9767 26.5857 19.1687 25.443 19.567L25.298 19.613C25.8974 18.0964 26.1168 16.4563 25.9371 14.8355C25.7574 13.2147 25.1841 11.6625 24.2671 10.314C23.3501 8.96558 22.1172 7.86185 20.676 7.09901C19.2347 6.33617 17.6287 5.93738 15.998 5.93738C14.3673 5.93738 12.7613 6.33617 11.32 7.09901C9.87876 7.86185 8.64591 8.96558 7.7289 10.314C6.8119 11.6625 6.23857 13.2147 6.05889 14.8355C5.87921 16.4563 6.09862 18.0964 6.698 19.613L6.547 19.565C5.40747 19.168 4.20647 18.9767 3 19C2.73478 19 2.48043 19.1053 2.29289 19.2929C2.10536 19.4804 2 19.7348 2 20C2 20.2652 2.10536 20.5195 2.29289 20.7071C2.48043 20.8946 2.73478 21 3 21C4.0011 20.9752 4.99816 21.1355 5.941 21.473C7.08201 21.8711 8.28474 22.0631 9.493 22.04C10.7019 22.0631 11.9053 21.8711 13.047 21.473C13.9915 21.1353 14.9903 20.975 15.993 21C16.9961 20.9751 17.9951 21.1355 18.94 21.473C20.0827 21.8712 21.2871 22.0632 22.497 22.04C23.7066 22.0632 24.9106 21.8712 26.053 21.473C26.9979 21.1354 27.9969 20.9751 29 21C29.2652 21 29.5196 20.8946 29.7071 20.7071C29.8946 20.5195 30 20.2652 30 20C30 19.7348 29.8946 19.4804 29.7071 19.2929C29.5196 19.1053 29.2652 19 29 19ZM19.549 19.567C18.4066 19.1688 17.2026 18.9768 15.993 19C14.7841 18.9768 13.5807 19.1688 12.439 19.567C11.4948 19.9045 10.4964 20.0649 9.494 20.04C9.359 20.04 9.236 20.04 9.114 20.033C8.39576 18.8181 8.01168 17.4349 8.00074 16.0236C7.9898 14.6123 8.3524 13.2233 9.05172 11.9974C9.75105 10.7716 10.7622 9.75256 11.9826 9.04375C13.203 8.33494 14.5892 7.9616 16.0005 7.9616C17.4118 7.9616 18.798 8.33494 20.0184 9.04375C21.2388 9.75256 22.25 10.7716 22.9493 11.9974C23.6486 13.2233 24.0112 14.6123 24.0003 16.0236C23.9893 17.4349 23.6052 18.8181 22.887 20.033C22.761 20.033 22.636 20.04 22.497 20.04C21.4936 20.0649 20.4942 19.9046 19.549 19.567Z" fill="#158FCC"/>
<path d="M29 23C27.7901 22.9767 26.5857 23.1687 25.443 23.567C24.4981 23.9045 23.499 24.0649 22.496 24.04C22.2308 24.04 21.9764 24.1453 21.7889 24.3329C21.6013 24.5204 21.496 24.7748 21.496 25.04C21.496 25.3052 21.6013 25.5596 21.7889 25.7471C21.9764 25.9346 22.2308 26.04 22.496 26.04C23.7055 26.0632 24.9096 25.8712 26.052 25.473C26.9972 25.1353 27.9966 24.975 29 25C29.2652 25 29.5195 24.8946 29.7071 24.7071C29.8946 24.5196 30 24.2652 30 24C30 23.7348 29.8946 23.4804 29.7071 23.2929C29.5195 23.1053 29.2652 23 29 23Z" fill="#158FCC"/>
<path d="M9.494 24.04C8.49257 24.0649 7.49516 23.9045 6.552 23.567C5.41101 23.1688 4.20826 22.9768 3 23C2.73478 23 2.48043 23.1053 2.29289 23.2929C2.10536 23.4804 2 23.7348 2 24C2 24.2652 2.10536 24.5196 2.29289 24.7071C2.48043 24.8946 2.73478 25 3 25C4.0011 24.9752 4.99816 25.1356 5.941 25.473C7.08201 25.8711 8.28474 26.0631 9.493 26.04C9.75822 26.0401 10.0126 25.9349 10.2003 25.7474C10.3879 25.56 10.4934 25.3057 10.4935 25.0405C10.4936 24.7753 10.3884 24.5209 10.201 24.3332C10.0135 24.1456 9.75922 24.0401 9.494 24.04Z" fill="#158FCC"/>
<path d="M16 5C16.2652 5 16.5196 4.89464 16.7071 4.70711C16.8946 4.51957 17 4.26522 17 4V3C17 2.73478 16.8946 2.48043 16.7071 2.29289C16.5196 2.10536 16.2652 2 16 2C15.7348 2 15.4804 2.10536 15.2929 2.29289C15.1054 2.48043 15 2.73478 15 3V4C15 4.26522 15.1054 4.51957 15.2929 4.70711C15.4804 4.89464 15.7348 5 16 5Z" fill="#158FCC"/>
<path d="M28 17H29C29.2652 17 29.5196 16.8946 29.7071 16.7071C29.8946 16.5196 30 16.2652 30 16C30 15.7348 29.8946 15.4804 29.7071 15.2929C29.5196 15.1054 29.2652 15 29 15H28C27.7348 15 27.4804 15.1054 27.2929 15.2929C27.1054 15.4804 27 15.7348 27 16C27 16.2652 27.1054 16.5196 27.2929 16.7071C27.4804 16.8946 27.7348 17 28 17Z" fill="#158FCC"/>
<path d="M3 17H4C4.26522 17 4.51957 16.8946 4.70711 16.7071C4.89464 16.5196 5 16.2652 5 16C5 15.7348 4.89464 15.4804 4.70711 15.2929C4.51957 15.1054 4.26522 15 4 15H3C2.73478 15 2.48043 15.1054 2.29289 15.2929C2.10536 15.4804 2 15.7348 2 16C2 16.2652 2.10536 16.5196 2.29289 16.7071C2.48043 16.8946 2.73478 17 3 17Z" fill="#158FCC"/>
<path d="M6.808 8.222C6.9966 8.40416 7.24921 8.50495 7.5114 8.50268C7.7736 8.5004 8.02441 8.39523 8.20982 8.20982C8.39523 8.02441 8.5004 7.7736 8.50268 7.5114C8.50495 7.24921 8.40416 6.9966 8.222 6.808L7.515 6.1C7.32736 5.91236 7.07287 5.80695 6.8075 5.80695C6.54214 5.80695 6.28764 5.91236 6.1 6.1C5.91236 6.28764 5.80695 6.54214 5.80695 6.8075C5.80695 7.07287 5.91236 7.32736 6.1 7.515L6.808 8.222Z" fill="#158FCC"/>
<path d="M24.485 8.515C24.7502 8.51495 25.0045 8.40955 25.192 8.222L25.9 7.515C25.9929 7.42209 26.0666 7.31179 26.1169 7.1904C26.1672 7.06901 26.193 6.9389 26.193 6.8075C26.193 6.67611 26.1672 6.546 26.1169 6.42461C26.0666 6.30321 25.9929 6.19291 25.9 6.1C25.8071 6.00709 25.6968 5.93339 25.5754 5.88311C25.454 5.83283 25.3239 5.80695 25.1925 5.80695C25.0611 5.80695 24.931 5.83283 24.8096 5.88311C24.6882 5.93339 24.5779 6.00709 24.485 6.1L23.778 6.807C23.6378 6.9468 23.5423 7.12505 23.5036 7.31918C23.4648 7.5133 23.4845 7.71456 23.5602 7.89747C23.6359 8.08037 23.7642 8.23669 23.9289 8.34662C24.0935 8.45656 24.287 8.51516 24.485 8.515Z" fill="#158FCC"/>
<path d="M18.1155 26.7044L17.6969 27.123V23.4286C17.6969 23.0497 17.5464 22.6863 17.2785 22.4184C17.0106 22.1505 16.6472 22 16.2683 22C15.8894 22 15.526 22.1505 15.2581 22.4184C14.9902 22.6863 14.8397 23.0497 14.8397 23.4286V27.123L14.4211 26.7044C14.1517 26.4442 13.7908 26.3002 13.4162 26.3035C13.0416 26.3067 12.6833 26.457 12.4184 26.7218C12.1536 26.9867 12.0033 27.345 12.0001 27.7196C11.9968 28.0942 12.1408 28.4551 12.401 28.7245L15.2583 31.5817C15.5262 31.8495 15.8895 32 16.2683 32C16.6471 32 17.0104 31.8495 17.2783 31.5817L20.1356 28.7245C20.3958 28.4551 20.5398 28.0942 20.5365 27.7196C20.5333 27.345 20.383 26.9867 20.1181 26.7218C19.8533 26.457 19.495 26.3067 19.1204 26.3035C18.7458 26.3002 18.3849 26.4442 18.1155 26.7044Z" fill="#158FCC"/>
</svg>
