<svg width="32" height="32" viewBox="0 0 32 32" fill="none" xmlns="http://www.w3.org/2000/svg">
<path d="M15 13C17.7614 13 20 10.7614 20 8C20 5.23858 17.7614 3 15 3C12.2386 3 10 5.23858 10 8" stroke="#979797" stroke-width="2" stroke-linecap="round"/>
<path d="M5 13H15" stroke="#979797" stroke-width="2" stroke-linecap="round"/>
<path d="M6 21H20" stroke="#979797" stroke-width="2" stroke-linecap="round"/>
<path d="M17 24C17 25.6569 18.3431 27 20 27C21.6569 27 23 25.6569 23 24C23 22.3431 21.6569 21 20 21" stroke="#979797" stroke-width="2" stroke-linecap="round"/>
<path d="M24 17C26.7614 17 29 14.7614 29 12C29 9.23858 26.7614 7 24 7C23.7037 7 23.4134 7.02577 23.1313 7.0752" stroke="#979797" stroke-width="2" stroke-linecap="round"/>
<path d="M3 17H24" stroke="#979797" stroke-width="2" stroke-linecap="round"/>
</svg>
