<svg width="32" height="32" viewBox="0 0 32 32" fill="none" xmlns="http://www.w3.org/2000/svg">
<path d="M13.6226 15.1592L13.3803 15.2285L13.2918 15.4644L12.5 17.576L11.7082 15.4644L11.6197 15.2285L11.3774 15.1592L10.82 15L11.3774 14.8408L11.6197 14.7715L11.7082 14.5356L12.5 12.424L13.2918 14.5356L13.3803 14.7715L13.6226 14.8408L14.18 15L13.6226 15.1592ZM5.84189 15.4743L10.1515 16.9109L12.0291 22.1682L12.5 23.4866L12.9709 22.1682L14.8485 16.9109L19.1581 15.4743L20.5811 15L19.1581 14.5257L14.8485 13.0891L12.9709 7.83183L12.5 6.51339L12.0291 7.83183L10.1515 13.0891L5.84189 14.5257L4.41886 15L5.84189 15.4743ZM22.9682 14.1756L24.0987 11.1608L26.1581 10.4743L27.5811 10L26.1581 9.52566L24.0987 8.83919L22.9682 5.82444L22.5 4.576L22.0318 5.82444L20.9013 8.83919L18.8419 9.52566L17.4189 10L18.8419 10.4743L20.9013 11.1608L22.0318 14.1756L22.5 15.424L22.9682 14.1756ZM20.9682 26.1756L22.0987 23.1608L24.1581 22.4743L25.5811 22L24.1581 21.5257L22.0987 20.8392L20.9682 17.8244L20.5 16.576L20.0318 17.8244L18.9013 20.8392L16.8419 21.5257L15.4189 22L16.8419 22.4743L18.9013 23.1608L20.0318 26.1756L20.5 27.424L20.9682 26.1756Z" fill="#157EFB" stroke="#157EFB"/>
</svg>
