<svg width="32" height="32" viewBox="0 0 32 32" fill="none" xmlns="http://www.w3.org/2000/svg">
<g clip-path="url(#clip0_33_73)">
<path d="M24.5 19C24.5 21.3206 23.5781 23.5462 21.9372 25.1872C20.2962 26.8281 18.0706 27.75 15.75 27.75C13.4294 27.75 11.2038 26.8281 9.56282 25.1872C7.92187 23.5462 7 21.3206 7 19C7 11.35 14.11 4.23999 15.75 4.23999C17.39 4.23999 24.5 11.35 24.5 19Z" fill="#0BAEFF"/>
<path d="M25 19.18C25 21.6333 24.0254 23.986 22.2907 25.7207C20.556 27.4555 18.2033 28.43 15.75 28.43C13.2967 28.43 10.944 27.4555 9.20926 25.7207C7.47455 23.986 6.5 21.6333 6.5 19.18C6.5 11.085 14 3.57001 15.75 3.57001C17.5 3.57001 25 11.085 25 19.18Z" fill="#0BAEFF"/>
<path d="M14.65 17.035C14.65 18.695 13.6 19.56 12.45 19.56C11.3 19.56 10.29 18.655 10.29 17.165C10.29 15.675 11.155 14.665 12.51 14.665C13.865 14.665 14.65 15.68 14.65 17.035ZM11.65 17.12C11.65 17.95 11.93 18.55 12.47 18.55C13.01 18.55 13.25 18.015 13.25 17.12C13.25 16.315 13.03 15.69 12.455 15.69C11.88 15.69 11.67 16.33 11.67 17.12H11.65ZM21.5 20.335C21.5 21.995 20.45 22.86 19.3 22.86C18.15 22.86 17.15 21.955 17.14 20.465C17.13 18.975 18.005 17.965 19.36 17.965C20.715 17.965 21.5 19 21.5 20.335ZM18.535 20.42C18.535 21.25 18.805 21.85 19.34 21.85C19.875 21.85 20.12 21.315 20.12 20.42C20.12 19.615 19.91 18.99 19.34 18.99C18.77 18.99 18.555 19.625 18.555 20.42H18.535Z" fill="#E0E0E0"/>
<path d="M18.35 14.845L13.725 22.36" stroke="#E0E0E0" stroke-width="2" stroke-linecap="round" stroke-linejoin="round"/>
</g>
<defs>
<clipPath id="clip0_33_73">
<rect width="32" height="32" fill="white"/>
</clipPath>
</defs>
</svg>
