<?xml version="1.0" encoding="UTF-8"?>
<svg version="1.1" xmlns="http://www.w3.org/2000/svg" width="512" height="512">
<path d="M0 0 C10.58382815 8.81985679 19.46229559 17.74637627 26.68579102 29.50073242 C28.47560976 32.40416202 30.16514254 35.02516099 32.7421875 37.28515625 C33.73476563 36.7540625 34.72734375 36.22296875 35.75 35.67578125 C47.17730089 29.68533272 58.64700314 24.83173786 71.7421875 24.28515625 C72.61746094 24.23359375 73.49273437 24.18203125 74.39453125 24.12890625 C95.06407433 23.46304177 115.78238826 30.73420559 131.0546875 44.72265625 C145.40708245 58.3024063 155.01785908 74.46675797 157.7421875 94.28515625 C157.78670085 96.20912231 157.78288131 98.13472422 157.734375 100.05859375 C157.71761719 101.13109375 157.70085937 102.20359375 157.68359375 103.30859375 C157.6394743 105.53532829 157.58744503 107.76192075 157.52734375 109.98828125 C157.4228463 117.91108776 157.8242492 123.74901069 163.046875 130.078125 C164.31917969 131.26341797 164.31917969 131.26341797 165.6171875 132.47265625 C166.46023438 133.27058594 167.30328125 134.06851563 168.171875 134.890625 C169.44417969 136.07591797 169.44417969 136.07591797 170.7421875 137.28515625 C172.41768902 138.94294098 174.08493301 140.60913027 175.7421875 142.28515625 C176.37640625 142.92195312 177.010625 143.55875 177.6640625 144.21484375 C196.40342573 164.15544822 205.17528637 192.07231459 205.0546875 218.97265625 C205.05220001 219.63600983 205.04971252 220.2993634 205.04714966 220.9828186 C204.86283172 252.7692845 192.76461697 279.57905516 170.9921875 302.47265625 C149.01477008 323.58345627 121.8145974 333.44200855 91.7421875 335.28515625 C91.72800781 335.91679687 91.71382813 336.5484375 91.69921875 337.19921875 C90.62102949 357.42255246 79.20962486 374.45411462 65.08203125 388.1953125 C61.22289869 391.64211704 57.10169834 394.50975127 52.7421875 397.28515625 C51.83855469 397.87167969 50.93492187 398.45820313 50.00390625 399.0625 C22.98104772 415.77352347 -10.69449058 418.83553279 -41.25952148 411.81396484 C-56.53980703 408.0068615 -71.13744659 401.44429791 -83.2578125 391.28515625 C-84.54558594 390.22167969 -84.54558594 390.22167969 -85.859375 389.13671875 C-98.22096352 378.49305492 -107.70541582 365.06302797 -112.2578125 349.28515625 C-112.2578125 348.62515625 -112.2578125 347.96515625 -112.2578125 347.28515625 C-117.05584729 348.9785803 -121.56573293 350.91424133 -126.1328125 353.16015625 C-131.40793152 355.62024656 -136.65451372 357.46632775 -142.2578125 359.03515625 C-143.30557861 359.33268799 -143.30557861 359.33268799 -144.37451172 359.63623047 C-177.61391064 368.52999502 -212.5324755 363.33369753 -242.3125 346.640625 C-251.89132145 341.05259446 -260.2143978 333.87579595 -268.2578125 326.28515625 C-268.99515625 325.61226563 -269.7325 324.939375 -270.4921875 324.24609375 C-291.65841423 304.20573014 -306.44014434 273.53297013 -307.64231873 244.2868042 C-307.7255001 240.8684298 -307.72621248 237.4542239 -307.6953125 234.03515625 C-307.69227112 233.31626221 -307.68922974 232.59736816 -307.68609619 231.85668945 C-307.61389125 220.27694165 -306.68733414 209.39102481 -303.2578125 198.28515625 C-303.04882324 197.57584961 -302.83983398 196.86654297 -302.62451172 196.13574219 C-296.34226786 175.21375254 -285.1597426 158.13235804 -270.2578125 142.28515625 C-269.731875 141.69476563 -269.2059375 141.104375 -268.6640625 140.49609375 C-258.713566 129.78407966 -246.02980743 122.74527369 -233.02734375 116.43286133 C-227.22456723 113.56448819 -223.24170298 111.2529372 -220.2578125 105.28515625 C-220.01709112 100.79169053 -220.25408147 97.02594007 -221.3203125 92.66015625 C-223.89012416 80.51872726 -221.00962877 69.62626494 -214.98046875 59.04296875 C-208.87163406 49.9416904 -198.82076678 43.75648895 -188.2578125 41.28515625 C-184.79423726 40.7801413 -181.31943584 40.38446909 -177.82739258 40.14306641 C-173.07020954 39.7311431 -170.58502185 38.70229017 -167.2578125 35.28515625 C-165.62941233 32.97316147 -164.1157683 30.6844941 -162.6328125 28.28515625 C-146.60139699 3.35583442 -120.97283934 -14.38957307 -91.96875 -20.69140625 C-59.96608857 -27.00293433 -25.82610671 -20.40192441 0 0 Z " fill="#C5C0C7" transform="translate(307.2578125,39.71484375)"/>
<path d="M0 0 C19.82424213 1.16613189 35.82381319 14.02104984 48.8125 27.9375 C58.98821378 40.21257221 66.39942707 57.62139913 65.9921875 73.7734375 C65.96705078 75.3821875 65.96705078 75.3821875 65.94140625 77.0234375 C65.8972868 79.25017204 65.84525753 81.4767645 65.78515625 83.703125 C65.6806588 91.62593151 66.0820617 97.46385444 71.3046875 103.79296875 C72.57699219 104.97826172 72.57699219 104.97826172 73.875 106.1875 C75.13957031 107.38439453 75.13957031 107.38439453 76.4296875 108.60546875 C77.70199219 109.79076172 77.70199219 109.79076172 79 111 C80.67550152 112.65778473 82.34274551 114.32397402 84 116 C84.63421875 116.63679688 85.2684375 117.27359375 85.921875 117.9296875 C104.66123823 137.87029197 113.43309887 165.78715834 113.3125 192.6875 C113.31001251 193.35085358 113.30752502 194.01420715 113.30496216 194.69766235 C113.12064422 226.48412825 101.02242947 253.29389891 79.25 276.1875 C57.27258258 297.29830002 30.0724099 307.1568523 0 309 C-0.01417969 309.63164062 -0.02835938 310.26328125 -0.04296875 310.9140625 C-1.12115801 331.13739621 -12.53256264 348.16895837 -26.66015625 361.91015625 C-30.51928881 365.35696079 -34.64048916 368.22459502 -39 371 C-39.90363281 371.58652344 -40.80726563 372.17304688 -41.73828125 372.77734375 C-68.75813361 389.4865082 -102.44077503 392.55551206 -133.00268555 385.52807617 C-146.46485718 382.17673387 -160.08293312 376.71102746 -171 368 C-171.495 366.515 -171.495 366.515 -172 365 C-170.71351563 365.15855469 -169.42703125 365.31710937 -168.1015625 365.48046875 C-160.99282535 366.18434125 -153.8804785 366.25901711 -146.74365234 366.29516602 C-145.17520089 366.30664407 -143.60678721 366.32702942 -142.03857422 366.35668945 C-130.6801269 366.57030177 -120.90401642 365.28049153 -110 362 C-108.38037354 361.53327881 -108.38037354 361.53327881 -106.72802734 361.05712891 C-83.50221081 354.18541336 -62.87210137 338.93950349 -50.9296875 317.75097656 C-46.55198133 309.50599004 -44.33260232 300.93870849 -42.67578125 291.80078125 C-42 289 -42 289 -40 287 C-37.19920726 286.6761396 -34.43493692 286.44351952 -31.625 286.25 C-0.94229564 283.5126186 25.8008744 267.69404725 45.84765625 244.7109375 C57.37469285 230.19231064 64.54410141 213.89724556 69 196 C69.2475 195.0203125 69.495 194.040625 69.75 193.03125 C75.64543233 164.5366604 68.05358821 133.58635152 52.40625 109.45703125 C45.94251032 99.95608055 38.31224916 92.00423022 29.53125 84.6328125 C22.94663381 77.78399875 23.58525206 70.47839102 23.5 61.4375 C22.91450966 38.02237851 16.93867734 21.04858786 2 3 C1.01 1.515 1.01 1.515 0 0 Z " fill="#AFAAB4" transform="translate(399,66)"/>
<path d="M0 0 C8.5638625 7.22688818 13.78947019 15.06365796 15.625 26.25 C16.54462869 37.76304377 14.0323876 47.29335486 6.625 56.25 C-0.61130059 63.9223865 -8.50271731 68.67099194 -19.13671875 69.453125 C-31.40412991 69.64966563 -40.85299133 66.4138032 -50 58.1875 C-57.93094706 49.91093827 -60.77582663 39.66633914 -60.65234375 28.51171875 C-59.70007505 17.31250237 -54.57279845 9.07925135 -46.625 1.5 C-33.67188852 -9.38956397 -13.73389474 -9.74148348 0 0 Z " fill="#AEAAB4" transform="translate(455.375,432.75)"/>
<path d="M0 0 C7.76426217 5.28912736 12.20910277 12.75198034 14.33984375 21.8203125 C15.55294211 30.46363831 14.04252634 38.1705994 9.74609375 45.71484375 C9.39675781 46.34132812 9.04742187 46.9678125 8.6875 47.61328125 C4.01786256 55.01360633 -3.47232272 59.09322428 -11.7890625 61.24609375 C-20.22318548 62.85004741 -28.9901533 61.70973767 -36.51953125 57.42578125 C-44.27702022 51.88894752 -50.00996361 45.11683806 -52.25390625 35.71484375 C-53.5359327 24.81162816 -52.1863687 15.27687806 -45.4921875 6.37109375 C-33.22133764 -6.97003308 -15.49562197 -8.83545863 0 0 Z " fill="#C6C1C8" transform="translate(67.25390625,15.28515625)"/>
<path d="M0 0 C3.18953841 3.20469061 3.40747151 5.97250152 3.75 10.375 C4.98872526 20.11219279 8.57759031 29.31672062 15.9375 36.125 C23.49757683 41.93818529 30.14709632 44.20810541 39.625 43.88671875 C41.15231145 43.85454771 42.67965785 43.82400299 44.20703125 43.79492188 C46.59260739 43.74592322 48.97629477 43.68835555 51.36083984 43.60229492 C62.85952727 43.20491911 71.92128646 44.02118233 81.14160156 51.80883789 C82.33895657 52.93384567 83.5337887 54.06154246 84.7265625 55.19140625 C95.91370076 64.09113996 108.15493266 66.11457929 122 65 C132.78684777 63.06837462 141.87211667 57.97125783 149.8125 50.5 C152.32922996 48.23675363 152.66252368 48.00648993 156.25 47.9375 C160.38509969 49.53515215 160.38509969 49.53515215 162 52 C163.21979058 55.65937175 163.29988957 57.34309905 161.6875 60.875 C153.66214646 71.25915678 139.64782582 78.24708514 127 81 C114.55448943 82.00176399 101.41612822 82.61540073 90 77 C88.77796875 76.49146484 88.77796875 76.49146484 87.53125 75.97265625 C81.53186497 73.30520816 76.55147003 69.56718234 71.46508789 65.47802734 C65.83472949 60.95532316 62.28700427 59.41649686 55 60 C54.23816406 60.165 53.47632812 60.33 52.69140625 60.5 C37.41763705 63.3375072 23.08498026 59.85098815 10 52 C-1.46732643 43.81873166 -8.83097619 31.74841096 -11.61328125 17.9609375 C-13.21458845 5.70042382 -13.21458845 5.70042382 -10.125 1.375 C-6.273984 -1.11683388 -4.50549639 -1.19533578 0 0 Z " fill="#AFAAB4" transform="translate(57,272)"/>
<path d="M0 0 C3.71138726 2.43665547 6.94600153 5.21107796 10.12109375 8.30859375 C10.92933594 9.09363281 11.73757813 9.87867188 12.5703125 10.6875 C13.06813232 11.19941895 13.56595215 11.71133789 14.07885742 12.23876953 C18.7957573 16.75881755 22.89309202 17.80468678 29.2578125 18.6875 C45.88548513 21.52999261 58.13166896 29.44851314 68.53125 42.76953125 C77.85383199 56.11046755 81.82597852 71.5912808 79.24511719 87.71972656 C77.57259916 96.08231672 75.18207781 105.54156957 68.63671875 111.42578125 C66.5703125 112.6875 66.5703125 112.6875 63.0078125 112.625 C59.5703125 111.6875 59.5703125 111.6875 57.5703125 110.0625 C56.13135126 106.64496705 56.54009903 104.13780074 57.5703125 100.6875 C58.42224052 98.74901461 59.27669193 96.81163742 60.1328125 94.875 C64.10981396 84.89214995 64.43510645 72.16050132 60.66796875 61.98046875 C54.54823761 49.1965464 46.03597376 40.5884697 32.76171875 35.640625 C29.38040011 34.63078198 26.20039751 34.19501485 22.6953125 33.8125 C11.18000446 32.22626934 5.71213322 27.50587608 -1.8046875 19 C-8.19951387 13.36646248 -14.72448648 11.99443409 -23.1484375 12.2109375 C-27.58257061 12.85494255 -31.02782547 14.59667846 -34.984375 16.62109375 C-38.73700484 18.25762402 -40.61255501 18.11892468 -44.4296875 16.6875 C-46.53826618 14.23882798 -47.2591708 12.35251515 -48.0546875 9.25 C-46.83963518 4.26828548 -42.57482044 2.08183641 -38.4765625 -0.58203125 C-27.66871237 -6.08314921 -10.66790298 -5.34914793 0 0 Z " fill="#AFAAB4" transform="translate(350.4296875,125.3125)"/>
<path d="M0 0 C4.99268902 1.47931526 4.99268902 1.47931526 6.375 4 C6.76774738 7.09288558 7.01077985 9.04689172 6.375 12 C3.98554251 14.73080856 2.40166021 15.76900145 -1.125 16.5625 C-4.86496182 15.72100859 -6.33353575 14.01163873 -8.625 11 C-9.25 8 -9.25 8 -8.625 5 C-5.91953265 1.14675862 -4.77773264 0 0 0 Z " fill="#B0ABB4" transform="translate(373.625,212)"/>
<path d="M0 0 C1.91015625 0.484375 1.91015625 0.484375 4.47265625 2.609375 C6.25212063 6.16830376 6.13291975 7.73456694 4.91015625 11.484375 C3.13508027 14.34421964 1.78414384 14.51874202 -1.52734375 15.421875 C-5.08984375 15.484375 -5.08984375 15.484375 -7.46484375 13.921875 C-9.46148729 10.92690968 -10.08984375 9.09397013 -10.08984375 5.484375 C-7.68700904 0.67870558 -5.11752389 -0.34435675 0 0 Z " fill="#AFAAB4" transform="translate(305.08984375,349.515625)"/>
<path d="M0 0 C3.72206393 1.34627844 5.01947413 2.61005343 6.9375 6.0625 C6.9375 9.69325827 6.34926127 11.48298414 4.25 14.4375 C1.20578585 16.57667751 -0.41347722 16.67067046 -4.0625 16.0625 C-6.4375 14.5625 -6.4375 14.5625 -8.0625 12.0625 C-8.67787233 9.2559421 -8.72124393 6.86359377 -8.0625 4.0625 C-5.4424551 0.90303409 -4.11187634 0.08391584 0 0 Z " fill="#AFAAB4" transform="translate(112.0625,229.9375)"/>
<path d="M0 0 C2.5 2.0625 2.5 2.0625 4 5 C4 8.8137751 3.84985071 11.02424548 1.3125 13.9375 C-1.73602877 15.33817538 -3.67926952 15.4842732 -7 15 C-9.375 13.5 -9.375 13.5 -11 11 C-11.58428517 8.0368395 -11.39344818 6.09840439 -11 3 C-8.07140737 -0.74859857 -4.493323 -0.64190329 0 0 Z " fill="#AFAAB4" transform="translate(336,376)"/>
<path d="M0 0 C2.375 1.5 2.375 1.5 4 4 C4.58428517 6.9631605 4.39344818 8.90159561 4 12 C1.73077752 14.90460477 0.15004537 14.97856495 -3.5 15.5 C-7 15 -7 15 -9.5 12.9375 C-11.46601181 9.08739354 -11.21718491 7.10799908 -10 3 C-7.08550322 -0.34627408 -4.29616198 -0.62652362 0 0 Z " fill="#AFAAB4" transform="translate(446,278)"/>
<path d="M0 0 C2.4375 1.625 2.4375 1.625 4 4 C4.5625 6.9375 4.5625 6.9375 4 10 C1.9375 12.9375 1.9375 12.9375 -1 15 C-4.85210127 15.06641554 -6.99848005 14.87229157 -9.9375 12.3125 C-11.33817538 9.26397123 -11.4842732 7.32073048 -11 4 C-8.05899778 -0.47032338 -5.13105401 -0.73300772 0 0 Z " fill="#AFAAB4" transform="translate(175,279)"/>
<path d="M0 0 C2.9375 2.0625 2.9375 2.0625 5 5 C5.06641554 8.85210127 4.87229157 10.99848005 2.3125 13.9375 C-0.73602877 15.33817538 -2.67926952 15.4842732 -6 15 C-8.375 13.4375 -8.375 13.4375 -10 11 C-10.56783945 7.02512383 -10.62340519 4.93510779 -8.375 1.5625 C-5.24316508 -0.49791771 -3.68455227 -0.6767545 0 0 Z " fill="#AFAAB4" transform="translate(349,171)"/>
<path d="M0 0 C1.9375 1.125 1.9375 1.125 3 3 C3.3898913 6.57400356 3.37020241 9.09763163 2 12.4375 C-0.58949107 14.4605399 -2.81364374 14.62470607 -6.0546875 14.4453125 C-8 14 -8 14 -10.5625 11.9375 C-12.44610971 8.08838451 -12.207644 6.07579849 -11 2 C-7.79952331 -1.93904824 -4.62362797 -1.17692348 0 0 Z " fill="#AFAAB4" transform="translate(268,374)"/>
<path d="M0 0 C2.4375 1.5625 2.4375 1.5625 4 4 C4.5625 7.5 4.5625 7.5 4 11 C1.9375 13.5 1.9375 13.5 -1 15 C-4.80284671 15 -7.01930006 14.7968187 -10 12.375 C-11.45635054 8.91616747 -10.91305869 6.58701629 -10 3 C-7.67133148 -1.01048467 -4.26353269 -0.52359173 0 0 Z " fill="#AFAAB4" transform="translate(334,204)"/>
<path d="M0 0 C2 1.625 2 1.625 3 4 C2.87988224 7.42335626 2.60726153 9.95416069 0.875 12.9375 C-2.18452459 14.6712306 -4.56817525 14.42145216 -8 14 C-10.4375 12.4375 -10.4375 12.4375 -12 10 C-12.5625 6.5 -12.5625 6.5 -12 3 C-8.33340589 -1.4443565 -5.38867153 -1.59664341 0 0 Z " fill="#AFAAB4" transform="translate(204,100)"/>
<path d="M0 0 C2.9375 2.0625 2.9375 2.0625 5 5 C5.06641554 8.85210127 4.87229157 10.99848005 2.3125 13.9375 C-0.73602877 15.33817538 -2.67926952 15.4842732 -6 15 C-8.375 13.4375 -8.375 13.4375 -10 11 C-10.56783945 7.02512383 -10.62340519 4.93510779 -8.375 1.5625 C-5.24316508 -0.49791771 -3.68455227 -0.6767545 0 0 Z " fill="#AFAAB4" transform="translate(242,76)"/>
</svg>
