<?xml version="1.0" encoding="utf-8"?>
<svg version="1.1" xmlns="http://www.w3.org/2000/svg" width="512" height="512">
  <path d="M0 0 C0.66547852 0.18191895 1.33095703 0.36383789 2.01660156 0.55126953 C35.34287678 9.84177824 64.87651218 33.26470294 82.1953125 63.05615234 C89.80819847 76.80792581 98 94.06989085 98 110 C98.54785156 110.01417969 99.09570312 110.02835937 99.66015625 110.04296875 C116.98138059 111.08505867 133.23086392 119.62347104 146 131 C146.74765625 131.65355469 147.4953125 132.30710938 148.265625 132.98046875 C164.1198199 147.75369582 173.31738853 168.519537 174.28125 190.0859375 C174.93984831 215.16052975 167.58004257 237.24811431 150.23828125 255.7265625 C133.92920815 272.29179905 112.79565184 281.48655951 89.53071404 282.08998299 C85.26679857 282.12295234 81.0039705 282.12386316 76.73999023 282.11352539 C75.10321555 282.11324294 73.46644075 282.11340238 71.82966614 282.1139679 C67.40884125 282.11425362 62.98804376 282.10839336 58.56722522 282.10139394 C53.93878492 282.09512283 49.31034392 282.09455363 44.68190002 282.09336853 C35.92736661 282.09026627 27.17284575 282.08206782 18.41831785 282.07201904 C8.44732113 282.06082354 -1.52367621 282.0553388 -11.49467766 282.05032361 C-31.99645877 282.03988425 -52.49822859 282.02230626 -73 282 C-73.14405273 283.11528076 -73.28810547 284.23056152 -73.43652344 285.37963867 C-74.20157366 290.29511951 -75.49306962 291.57277258 -79 295 C-83.05755698 297.06813751 -86.79895246 297.37190388 -91.3125 297.625 C-93.19388672 297.73714844 -93.19388672 297.73714844 -95.11328125 297.8515625 C-96.06589844 297.90054687 -97.01851562 297.94953125 -98 298 C-97.3503125 298.81082031 -96.700625 299.62164062 -96.03125 300.45703125 C-91.24400655 306.69598827 -87.72811563 311.46802568 -88.50390625 319.69140625 C-89.68780258 325.20071911 -92.52186554 327.78492911 -97 331 C-100.7260729 332.86303645 -104.93340234 332.41611697 -109 332 C-118.85266221 327.77743048 -125.70450472 314.77347331 -131.73828125 306.1640625 C-132.85783203 304.59785156 -132.85783203 304.59785156 -134 303 C-134.53496094 302.05511719 -135.06992188 301.11023438 -135.62109375 300.13671875 C-139.47118677 296.67858923 -143.75002306 297.21745992 -148.75 297.1875 C-149.73355469 297.16236328 -150.71710938 297.13722656 -151.73046875 297.11132812 C-154.15404766 297.05250339 -156.57582278 297.01619081 -159 297 C-160.42664529 308.59157884 -160.42664529 308.59157884 -156.39550781 319.06201172 C-152.14817524 322.87966509 -147.2800411 325.74229615 -142.35302734 328.59472656 C-138.8982425 330.65799089 -135.73718921 333.0350236 -132.5625 335.5 C-131.04849609 336.62921875 -131.04849609 336.62921875 -129.50390625 337.78125 C-125.2386533 341.56075651 -123.4542832 345.23230461 -122.9375 350.94921875 C-123.087873 355.88333275 -125.35615447 359.25957764 -128.5 362.875 C-132.43936476 366.22346004 -136.15913054 366.51029708 -141.1640625 366.48828125 C-146.55848249 365.55948993 -150.69007162 362.21523411 -155 359 C-156.14855469 358.14341797 -156.14855469 358.14341797 -157.3203125 357.26953125 C-157.87460938 356.85058594 -158.42890625 356.43164062 -159 356 C-158.95359375 357.08539063 -158.9071875 358.17078125 -158.859375 359.2890625 C-158.82183513 360.73434731 -158.78543736 362.17966211 -158.75 363.625 C-158.71648437 364.33785156 -158.68296875 365.05070312 -158.6484375 365.78515625 C-158.55253717 371.011724 -159.58915263 373.83256467 -163 378 C-167.35061345 381.93626932 -170.91777006 382.63883919 -176.6015625 382.3828125 C-181.49569124 381.60166492 -184.10239254 379.09671312 -187.1484375 375.375 C-189.44980149 371.18010868 -189.46973316 368.29855527 -189.25 363.625 C-189.23195313 362.88894531 -189.21390625 362.15289062 -189.1953125 361.39453125 C-189.14859176 359.59578264 -189.07686183 357.79771289 -189 356 C-189.91523438 356.63808594 -190.83046875 357.27617187 -191.7734375 357.93359375 C-192.97391066 358.76829774 -194.1744341 359.6029294 -195.375 360.4375 C-195.97828125 360.85837891 -196.5815625 361.27925781 -197.203125 361.71289062 C-203.1212864 365.82272493 -206.79928138 366.79761806 -214 366 C-218.37962299 363.81018851 -221.39404749 361.15022066 -224 357 C-225.41502656 352.09457459 -225.15975579 348.03605682 -223.37890625 343.31640625 C-220.43372946 338.36884298 -215.60299178 335.30684247 -211 332 C-209.80331975 331.12899646 -208.60670703 330.25790013 -207.41015625 329.38671875 C-205.07072494 327.69514903 -202.7215036 326.01909111 -200.359375 324.359375 C-199.54255249 323.76805786 -199.54255249 323.76805786 -198.70922852 323.16479492 C-197 322 -197 322 -195.05444336 320.9543457 C-192.08593092 319.24126271 -190.3180957 318.11899374 -189.35498047 314.73095703 C-189.0859037 312.01823433 -189.03103659 309.41469544 -189.0625 306.6875 C-189.041875 303.490625 -189.02125 300.29375 -189 297 C-195.93 297 -202.86 297 -210 297 C-210.66 298.65 -211.32 300.3 -212 302 C-213.47822092 304.0818045 -214.97042885 306.07324105 -216.5625 308.0625 C-217.46445614 309.20761363 -218.36547664 310.35346477 -219.265625 311.5 C-219.72130859 312.07878906 -220.17699219 312.65757812 -220.64648438 313.25390625 C-221.95468069 314.94153613 -223.22598029 316.6500095 -224.484375 318.375 C-225.63679688 319.9528125 -225.63679688 319.9528125 -226.8125 321.5625 C-227.49957031 322.51253906 -228.18664062 323.46257812 -228.89453125 324.44140625 C-231.88887433 328.08017196 -235.30472559 331.70429543 -240.171875 332.23828125 C-246.01846537 332.40659218 -249.43192863 332.02425335 -254 328 C-254.78375 327.34 -255.5675 326.68 -256.375 326 C-259.07464734 321.01603567 -259.20971302 316.50451426 -258 311 C-255.64734112 306.24112578 -252.33473713 302.10225599 -249 298 C-250.01320313 297.97421875 -251.02640625 297.9484375 -252.0703125 297.921875 C-253.42191597 297.86555819 -254.77347681 297.80821167 -256.125 297.75 C-256.79015625 297.73582031 -257.4553125 297.72164063 -258.140625 297.70703125 C-264.48606535 297.39598025 -268.13763761 295.009391 -272.375 290.4375 C-274.68142075 285.55853303 -274.75906957 281.30558003 -274 276 C-271.92330234 271.24090118 -269.1213418 268.85767243 -264.50390625 266.74609375 C-259.46847077 265.24567538 -254.22413031 265.15927227 -249 265 C-249.56589844 264.22914063 -250.13179687 263.45828125 -250.71484375 262.6640625 C-251.44832031 261.66117187 -252.18179688 260.65828125 -252.9375 259.625 C-254.03384766 258.12839844 -254.03384766 258.12839844 -255.15234375 256.6015625 C-257.72767358 252.97541099 -258.1573833 251.15908477 -258.1875 246.75 C-258.20167969 245.81671875 -258.21585937 244.8834375 -258.23046875 243.921875 C-258 241 -258 241 -256.76953125 238.0390625 C-255.65370228 234.93524428 -255.65370228 234.93524428 -257.34375 231.9140625 C-258.0553125 230.82867187 -258.766875 229.74328125 -259.5 228.625 C-273.05162774 206.73255259 -276.4096663 180.08558525 -271.875 154.875 C-271.30697415 152.56855084 -270.67996635 150.27596284 -270 148 C-269.70198486 146.99283936 -269.70198486 146.99283936 -269.39794922 145.96533203 C-264.90935324 131.1680954 -258.07272347 118.81015831 -248 107 C-247.236875 105.989375 -246.47375 104.97875 -245.6875 103.9375 C-241.55555125 99.42118393 -236.82891386 95.74487198 -232 92 C-231.22785156 91.38898438 -230.45570313 90.77796875 -229.66015625 90.1484375 C-214.68744806 78.93810214 -193.73507561 70.33563947 -174.89453125 71.1875 C-165.65547975 71.87965411 -165.65547975 71.87965411 -157.35205078 68.71484375 C-154.51357453 65.22068685 -152.8112536 61.14964923 -151.00439453 57.05761719 C-149.36060061 53.69011715 -147.15430278 50.8469246 -144.8125 47.9375 C-144.35359375 47.36636475 -143.8946875 46.79522949 -143.421875 46.20678711 C-109.21671471 4.60417521 -52.46136246 -15.05079635 0 0 Z " transform="translate(306,4)" style="fill: rgb(220, 220, 220);"/>
  <path d="M0 0 C5.80067568 4.77702703 5.80067568 4.77702703 7.125 8.75 C7.35218496 11.31634861 7.54108184 13.86678107 7.6875 16.4375 C7.73068359 17.13939453 7.77386719 17.84128906 7.81835938 18.56445312 C7.9241736 20.29275206 8.02506581 22.0213511 8.125 23.75 C8.80046875 23.26789063 9.4759375 22.78578125 10.171875 22.2890625 C11.50992188 21.34160156 11.50992188 21.34160156 12.875 20.375 C13.75671875 19.74851562 14.6384375 19.12203125 15.546875 18.4765625 C21.44065991 14.5295126 26.04958375 13.91940766 33.125 14.75 C37.60163127 16.90837579 40.11440477 19.19970553 42.125 23.75 C43.39292733 29.01677507 43.17264782 32.72395535 41.125 37.75 C37.7956958 41.38409965 34.16649064 44.39527811 30.25 47.375 C29.42483887 48.02601685 29.42483887 48.02601685 28.58300781 48.69018555 C25.49093462 51.09825205 22.4068262 53.20517609 18.9765625 55.10546875 C11.55537567 59.24282152 11.55537567 59.24282152 7.37353516 66.28808594 C6.46786708 72.43983371 6.60923796 78.56688278 7.125 84.75 C19.332915 86.31065667 19.332915 86.31065667 30.34863281 82.03125 C34.46257023 77.53220403 37.60079585 72.39219111 40.68505859 67.15380859 C42.66254822 63.85262805 44.875553 60.82628955 47.1875 57.75 C48.16396484 56.38875 48.16396484 56.38875 49.16015625 55 C52.7841301 50.85008163 56.57603729 49.18451075 62.07421875 48.6875 C67.03660374 48.83873459 70.40339134 51.10682706 74 54.3125 C77.51815788 58.34803404 77.63101295 61.40558558 77.6171875 66.65234375 C76.73232831 72.2213385 73.43575891 76.31568037 70.125 80.75 C69.465 81.74 68.805 82.73 68.125 83.75 C69.66220703 83.80607422 69.66220703 83.80607422 71.23046875 83.86328125 C72.59118062 83.92897079 73.95185611 83.99541709 75.3125 84.0625 C75.98603516 84.08505859 76.65957031 84.10761719 77.35351562 84.13085938 C83.03617138 84.43578237 86.19467681 86.03415717 90.375 89.75 C93.68586954 93.5338509 93.39937303 97.52891972 93.34375 102.3125 C92.88924609 107.37697219 89.82265509 110.51455179 86.125 113.75 C82.56413342 114.93695553 79.15168976 115.10095418 75.4375 115.3125 C74.73560547 115.35568359 74.03371094 115.39886719 73.31054688 115.44335938 C71.58224794 115.5491736 69.8536489 115.65006581 68.125 115.75 C68.84816406 116.76320313 68.84816406 116.76320313 69.5859375 117.796875 C70.21757812 118.68890625 70.84921875 119.5809375 71.5 120.5 C72.12648438 121.38171875 72.75296875 122.2634375 73.3984375 123.171875 C77.3454874 129.06565991 77.95559234 133.67458375 77.125 140.75 C74.96662421 145.22663127 72.67529447 147.73940477 68.125 149.75 C62.85822493 151.01792733 59.15104465 150.79764782 54.125 148.75 C50.49090035 145.4206958 47.47972189 141.79149064 44.5 137.875 C44.06598877 137.32489258 43.63197754 136.77478516 43.18481445 136.20800781 C40.77674795 133.11593462 38.66982391 130.0318262 36.76953125 126.6015625 C32.63217848 119.18037567 32.63217848 119.18037567 25.58691406 114.99853516 C19.43516629 114.09286708 13.30811722 114.23423796 7.125 114.75 C6.27312397 121.51691847 5.67042246 128.2553465 8.125 134.75 C12.78125397 140.56845695 19.38197253 144.39431511 25.67041016 148.24316406 C28.78624763 150.15593001 31.72930046 152.2272114 34.6875 154.375 C35.89599609 155.19871094 35.89599609 155.19871094 37.12890625 156.0390625 C41.13549373 159.47328034 42.72519669 163.39628795 43.1796875 168.6328125 C43.06167714 173.20149923 41.71944174 176.87924875 38.75 180.36328125 C34.56248917 183.93675804 30.38247241 184.55077702 24.9765625 184.3125 C18.42326418 183.01979458 13.33705123 178.7035605 8.125 174.75 C8.09921875 175.75160156 8.0734375 176.75320313 8.046875 177.78515625 C7.53554221 191.35933729 7.53554221 191.35933729 3.125 196.75 C-0.61908334 199.4741434 -3.26738273 200.16026238 -7.875 200.125 C-8.885625 200.13273438 -9.89625 200.14046875 -10.9375 200.1484375 C-15.6516244 199.50902169 -18.1512405 197.63459494 -21.125 194 C-24.19012647 188.30232539 -23.71194362 181.08474033 -23.875 174.75 C-24.88820313 175.47316406 -24.88820313 175.47316406 -25.921875 176.2109375 C-26.81390625 176.84257812 -27.7059375 177.47421875 -28.625 178.125 C-29.50671875 178.75148438 -30.3884375 179.37796875 -31.296875 180.0234375 C-37.17083401 183.95721005 -41.81596541 184.69852657 -48.875 183.75 C-53.27941333 182.04378583 -55.94441503 179.31614023 -57.9375 175.0625 C-59.4193441 170.20278767 -58.87311588 165.38956452 -56.875 160.75 C-53.60585242 157.06217211 -49.91420738 154.10298475 -46 151.125 C-45.17483887 150.4750708 -45.17483887 150.4750708 -44.33300781 149.81201172 C-41.23891992 147.40540283 -38.14399636 145.28356996 -34.7265625 143.359375 C-27.37188496 139.23873356 -27.37188496 139.23873356 -23.12353516 132.31005859 C-22.22233809 126.45808842 -22.35702802 120.63447301 -22.875 114.75 C-34.43983864 113.41796718 -34.43983864 113.41796718 -44.96923828 117.28857422 C-48.79787532 121.28116558 -51.72445936 125.88067571 -54.57324219 130.60302734 C-56.32720128 133.49580984 -58.25980942 136.20193386 -60.25 138.9375 C-60.86488281 139.78441406 -61.47976563 140.63132812 -62.11328125 141.50390625 C-65.62224899 145.97764561 -68.77667503 149.08941621 -74.25 150.8125 C-79.57942916 150.72061329 -84.47902753 149.95293203 -88.5234375 146.234375 C-91.56794308 142.32755281 -92.875 138.76983607 -92.875 133.75 C-91.03893169 126.74998957 -87.17465306 121.49857724 -82.875 115.75 C-83.87660156 115.72421875 -84.87820313 115.6984375 -85.91015625 115.671875 C-99.48433729 115.16054221 -99.48433729 115.16054221 -104.875 110.75 C-107.90938782 107.00758836 -108.62801218 103.52509787 -108.875 98.75 C-107.91473334 93.18045339 -106.15440772 90.40315293 -101.875 86.75 C-98.15433528 84.26955685 -95.00959526 84.30618827 -90.6875 84.125 C-89.93791016 84.08632813 -89.18832031 84.04765625 -88.41601562 84.0078125 C-86.56940801 83.91371784 -84.7222381 83.83077681 -82.875 83.75 C-83.42929687 83.04875 -83.98359375 82.3475 -84.5546875 81.625 C-93.38963311 70.05467977 -93.38963311 70.05467977 -92.671875 62.65625 C-91.77041393 58.18233208 -90.28689702 54.89253673 -86.875 51.75 C-81.38350359 48.61374538 -76.96722056 48.35178544 -70.875 49.75 C-65.30207271 52.14645272 -62.5225214 56.90172414 -59.125 61.6875 C-58.49867676 62.53618652 -57.87235352 63.38487305 -57.22705078 64.25927734 C-54.50751099 67.95905921 -51.87484861 71.60786604 -49.6640625 75.63671875 C-47.60649761 79.11778262 -46.1533191 81.36002872 -42.875 83.75 C-36.349508 85.384453 -29.54560546 85.13859764 -22.875 84.75 C-21.54976479 72.76880593 -21.54976479 72.76880593 -25.25097656 61.75488281 C-28.90441307 58.1882852 -33.22235199 55.63172843 -37.62353516 53.08837891 C-41.31327898 50.89501785 -44.7325511 48.3534322 -48.1875 45.8125 C-48.81479004 45.37534668 -49.44208008 44.93819336 -50.08837891 44.48779297 C-55.15101854 40.87918243 -57.38520526 37.91909099 -58.75 31.875 C-59.14437869 27.51218578 -58.04436389 24.58254287 -55.875 20.75 C-50.757272 15.00815883 -50.757272 15.00815883 -46.625 14.44140625 C-36.91598532 13.98629619 -31.35303867 18.07759253 -23.875 23.75 C-23.83761719 22.72519531 -23.80023438 21.70039063 -23.76171875 20.64453125 C-23.69602921 19.28381938 -23.62958291 17.92314389 -23.5625 16.5625 C-23.53994141 15.88896484 -23.51738281 15.21542969 -23.49414062 14.52148438 C-23.18921763 8.83882862 -21.59084283 5.68032319 -17.875 1.5 C-13.18254809 -2.60589542 -5.50291235 -2.39257059 0 0 Z " transform="translate(345.875,312.25)" style="fill: rgb(165, 208, 213);"/>
  <path d="M0 0 C3.9323173 2.65202795 6.18648186 5.30944559 7.6875 9.8125 C7.91468496 12.37884861 8.10358184 14.92928107 8.25 17.5 C8.29318359 18.20189453 8.33636719 18.90378906 8.38085938 19.62695312 C8.4866736 21.35525206 8.58756581 23.0838511 8.6875 24.8125 C9.59371094 24.090625 10.49992187 23.36875 11.43359375 22.625 C22.48055032 14.09824433 22.48055032 14.09824433 27.6875 14 C32.84529985 14.68898254 36.49661768 16.49287365 40 20.375 C42.87319943 24.52517696 43.16418022 27.84007099 42.6875 32.8125 C39.61551537 42.64285082 28.28537773 48.6900852 20.21484375 54.3203125 C19.65265137 54.72717285 19.09045898 55.1340332 18.51123047 55.55322266 C16.6875 56.8125 16.6875 56.8125 14.50830078 58.05224609 C11.19070292 60.10163323 9.06285444 61.50147028 7.96069336 65.35107422 C7.67662391 68.32479137 7.62970136 71.20123705 7.6875 74.1875 C7.67589844 75.20972656 7.66429687 76.23195313 7.65234375 77.28515625 C7.62887494 79.79631851 7.64163094 82.30180609 7.6875 84.8125 C20.03398329 86.04781027 20.03398329 86.04781027 31.51757812 82.64892578 C34.57781792 79.54184558 36.51834654 75.75130273 38.51855469 71.91064453 C40.64563327 68.09274284 43.30959355 64.67034023 45.9375 61.1875 C46.4217041 60.51323975 46.9059082 59.83897949 47.40478516 59.14428711 C50.84170422 54.47585451 54.31248508 50.51219821 60.25 49.28125 C65.8776786 49.35339973 69.34440747 49.88303533 73.6875 53.8125 C77.19623194 57.7829072 78.49789514 61.09475901 78.27734375 66.30859375 C76.61248662 73.37596739 71.173076 79.29484456 66.6875 84.8125 C67.77289063 84.77769531 68.85828125 84.74289062 69.9765625 84.70703125 C71.42185942 84.67887612 72.86717321 84.65157781 74.3125 84.625 C75.02535156 84.59986328 75.73820313 84.57472656 76.47265625 84.54882812 C81.3012028 84.48238024 84.48808242 85.17769404 88.6875 87.8125 C93.03805624 92.51580405 94.04371669 96.28417687 93.97265625 102.52734375 C93.41631312 106.98570993 90.89332561 109.75283507 87.625 112.625 C83.71975205 115.01853907 79.98385967 115.08704571 75.5 115.375 C74.22769531 115.45878906 72.95539063 115.54257812 71.64453125 115.62890625 C70.66871094 115.68949219 69.69289062 115.75007813 68.6875 115.8125 C69.66203125 117.02873047 69.66203125 117.02873047 70.65625 118.26953125 C75.44349345 124.50848827 78.95938437 129.28052568 78.18359375 137.50390625 C76.99969742 143.01321911 74.16563446 145.59742911 69.6875 148.8125 C65.9614271 150.67553645 61.75409766 150.22861697 57.6875 149.8125 C47.83483779 145.58993048 40.98299528 132.58597331 34.94921875 123.9765625 C34.20285156 122.93242187 33.45648438 121.88828125 32.6875 120.8125 C32.15253906 119.86761719 31.61757812 118.92273438 31.06640625 117.94921875 C27.21631323 114.49108923 22.93747694 115.02995992 17.9375 115 C16.95394531 114.97486328 15.97039062 114.94972656 14.95703125 114.92382812 C12.53345234 114.86500339 10.11167722 114.82869081 7.6875 114.8125 C6.26085471 126.40407884 6.26085471 126.40407884 10.29199219 136.87451172 C14.53932476 140.69216509 19.4074589 143.55479615 24.33447266 146.40722656 C27.7892575 148.47049089 30.95031079 150.8475236 34.125 153.3125 C35.63900391 154.44171875 35.63900391 154.44171875 37.18359375 155.59375 C41.4488467 159.37325651 43.2332168 163.04480461 43.75 168.76171875 C43.599627 173.69583275 41.33134553 177.07207764 38.1875 180.6875 C34.24813524 184.03596004 30.52836946 184.32279708 25.5234375 184.30078125 C20.12901751 183.37198993 15.99742838 180.02773411 11.6875 176.8125 C10.92179687 176.24144531 10.15609375 175.67039062 9.3671875 175.08203125 C8.81289062 174.66308594 8.25859375 174.24414062 7.6875 173.8125 C7.73390625 174.89789063 7.7803125 175.98328125 7.828125 177.1015625 C7.86566487 178.54684731 7.90206264 179.99216211 7.9375 181.4375 C7.97101563 182.15035156 8.00453125 182.86320313 8.0390625 183.59765625 C8.13496283 188.824224 7.09834737 191.64506467 3.6875 195.8125 C-0.66311345 199.74876932 -4.23027006 200.45133919 -9.9140625 200.1953125 C-14.80819124 199.41416492 -17.41489254 196.90921312 -20.4609375 193.1875 C-22.76230149 188.99260868 -22.78223316 186.11105527 -22.5625 181.4375 C-22.54445313 180.70144531 -22.52640625 179.96539062 -22.5078125 179.20703125 C-22.46109176 177.40828264 -22.38936183 175.61021289 -22.3125 173.8125 C-23.68535156 174.76962891 -23.68535156 174.76962891 -25.0859375 175.74609375 C-26.28641066 176.58079774 -27.4869341 177.4154294 -28.6875 178.25 C-29.29078125 178.67087891 -29.8940625 179.09175781 -30.515625 179.52539062 C-36.4337864 183.63522493 -40.11178138 184.61011806 -47.3125 183.8125 C-51.69212299 181.62268851 -54.70654749 178.96272066 -57.3125 174.8125 C-58.72752656 169.90707459 -58.47225579 165.84855682 -56.69140625 161.12890625 C-53.74622946 156.18134298 -48.91549178 153.11934247 -44.3125 149.8125 C-43.11581975 148.94149646 -41.91920703 148.07040013 -40.72265625 147.19921875 C-38.38322494 145.50764903 -36.0340036 143.83159111 -33.671875 142.171875 C-33.12732666 141.77766357 -32.58277832 141.38345215 -32.02172852 140.97729492 C-30.3125 139.8125 -30.3125 139.8125 -28.36694336 138.7668457 C-25.39843092 137.05376271 -23.6305957 135.93149374 -22.66748047 132.54345703 C-22.3984037 129.83073433 -22.34353659 127.22719544 -22.375 124.5 C-22.354375 121.303125 -22.33375 118.10625 -22.3125 114.8125 C-29.2425 114.8125 -36.1725 114.8125 -43.3125 114.8125 C-43.9725 116.4625 -44.6325 118.1125 -45.3125 119.8125 C-46.79072092 121.8943045 -48.28292885 123.88574105 -49.875 125.875 C-50.77695614 127.02011363 -51.67797664 128.16596477 -52.578125 129.3125 C-53.03380859 129.89128906 -53.48949219 130.47007812 -53.95898438 131.06640625 C-55.26718069 132.75403613 -56.53848029 134.4625095 -57.796875 136.1875 C-58.94929688 137.7653125 -58.94929688 137.7653125 -60.125 139.375 C-61.15560547 140.80005859 -61.15560547 140.80005859 -62.20703125 142.25390625 C-65.20137433 145.89267196 -68.61722559 149.51679543 -73.484375 150.05078125 C-79.33096537 150.21909218 -82.74442863 149.83675335 -87.3125 145.8125 C-88.09625 145.1525 -88.88 144.4925 -89.6875 143.8125 C-92.38714734 138.82853567 -92.52221302 134.31701426 -91.3125 128.8125 C-88.95984112 124.05362578 -85.64723713 119.91475599 -82.3125 115.8125 C-83.32570313 115.78671875 -84.33890625 115.7609375 -85.3828125 115.734375 C-86.73441597 115.67805819 -88.08597681 115.62071167 -89.4375 115.5625 C-90.10265625 115.54832031 -90.7678125 115.53414063 -91.453125 115.51953125 C-97.79856535 115.20848025 -101.45013761 112.821891 -105.6875 108.25 C-107.99392075 103.37103303 -108.07156957 99.11808003 -107.3125 93.8125 C-105.23580234 89.05340118 -102.4338418 86.67017243 -97.81640625 84.55859375 C-92.78097077 83.05817538 -87.53663031 82.97177227 -82.3125 82.8125 C-83.16134766 81.65621094 -83.16134766 81.65621094 -84.02734375 80.4765625 C-84.76082031 79.47367187 -85.49429688 78.47078125 -86.25 77.4375 C-86.98089844 76.43976563 -87.71179688 75.44203125 -88.46484375 74.4140625 C-92.0560358 69.35754262 -91.77932055 64.8899751 -91.3125 58.8125 C-89.81283091 54.66635604 -87.33407341 52.58177539 -83.40625 50.54296875 C-79.44221798 49.15999489 -75.4100023 48.95120122 -71.3125 49.8125 C-65.77856342 52.7278312 -62.63196376 56.82871095 -59 61.75 C-58.42443359 62.49765625 -57.84886719 63.2453125 -57.25585938 64.015625 C-54.61231271 67.49101557 -52.17619071 70.8814882 -50.20703125 74.78515625 C-48.29890872 78.43176862 -46.58438888 81.18369154 -43.3125 83.8125 C-36.48800343 85.60740979 -29.30020401 85.26076059 -22.3125 84.8125 C-20.86826064 72.1898091 -20.86826064 72.1898091 -24.85107422 60.62353516 C-28.80519635 56.75360726 -33.40604839 53.87614233 -38.16113281 51.08642578 C-41.09954873 49.3464514 -43.80818789 47.3935712 -46.5625 45.375 C-47.41070312 44.76398438 -48.25890625 44.15296875 -49.1328125 43.5234375 C-52.97306209 40.50904803 -55.74498421 37.51504737 -57.3125 32.8125 C-57.6948833 28.14742377 -57.79186179 25.77122359 -55.6875 21.5625 C-52.61929335 18.00983967 -49.98557629 15.3521588 -45.2421875 14.39453125 C-37.37325081 13.88730014 -31.63354091 17.79110489 -25.75 22.625 C-24.945625 23.346875 -24.14125 24.06875 -23.3125 24.8125 C-23.28671875 23.81089844 -23.2609375 22.80929688 -23.234375 21.77734375 C-22.7237189 8.17749597 -22.7237189 8.17749597 -18.3125 2.8125 C-12.68414216 -2.29228967 -6.92087468 -2.48106828 0 0 Z " transform="translate(139.3125,186.1875)" style="fill: rgb(139, 203, 214);"/>
  <path d="M0 0 C0 3.91827483 -1.19676379 4.70054859 -3.75 7.625 C-15.25376511 21.37911039 -24.39485569 36.30485216 -33 52 C-33.41910645 52.75313477 -33.83821289 53.50626953 -34.27001953 54.28222656 C-43.79655628 71.41684198 -50.89117807 89.39399187 -57 108 C-57.56847656 109.72863281 -57.56847656 109.72863281 -58.1484375 111.4921875 C-63.65572425 129.51202975 -66.59611193 148.24656986 -68 167 C-68.93102539 167.28133789 -68.93102539 167.28133789 -69.88085938 167.56835938 C-70.69361328 167.82423828 -71.50636719 168.08011719 -72.34375 168.34375 C-73.15005859 168.59318359 -73.95636719 168.84261719 -74.78710938 169.09960938 C-77.90468297 170.36810137 -79.29154945 172.15258242 -81 175 C-82.23759823 178.71279469 -82.35608897 182.31306346 -82.5625 186.1875 C-82.60568359 186.93708984 -82.64886719 187.68667969 -82.69335938 188.45898438 C-82.79922685 190.30578375 -82.9000976 192.15286834 -83 194 C-83.56847656 193.61328125 -84.13695313 193.2265625 -84.72265625 192.828125 C-87.1364759 191.20010641 -89.56791715 189.60056817 -92 188 C-92.91072266 187.36191406 -92.91072266 187.36191406 -93.83984375 186.7109375 C-98.47729642 183.67749787 -102.63310668 183.03219957 -108 184 C-112.38410756 186.19205378 -115.13092657 188.43115383 -117 193 C-117.53514713 198.61904486 -117.23393556 202.20125692 -114 207 C-108.93459047 211.92134825 -103.07419557 215.98417822 -97.375 220.125 C-94.93415387 221.9046262 -92.49579186 223.68474291 -90.07983398 225.49804688 C-87.89708701 227.133593 -87.89708701 227.133593 -84.93359375 228.7265625 C-81.60567027 232.63939375 -82.48405713 237.31729298 -82.6875 242.25 C-82.71005859 243.28125 -82.73261719 244.3125 -82.75585938 245.375 C-82.81472837 247.91814065 -82.89689935 250.45833113 -83 253 C-89.94582678 254.22789809 -97.1702086 255.15527248 -104 253 C-109.62498154 248.77200004 -113.06076493 242.40712662 -116.56005859 236.41992188 C-118.53150517 233.10676853 -120.74443505 230.08063623 -123.0625 227 C-124.03896484 225.63875 -124.03896484 225.63875 -125.03515625 224.25 C-127.80117581 221.08255016 -130.30808974 219.2696482 -134.5 218.6015625 C-139.71062989 218.65041216 -142.55003487 219.1206108 -147 222 C-149.39883368 221.43438027 -150.649578 220.48652199 -152.08496094 218.49365234 C-153.27938812 216.48754554 -154.37071603 214.45185574 -155.4375 212.375 C-155.83074463 211.61880371 -156.22398926 210.86260742 -156.62915039 210.08349609 C-164.17349177 195.10688113 -167.39544444 179.46922936 -167.3125 162.75 C-167.30686035 161.55777832 -167.3012207 160.36555664 -167.29541016 159.13720703 C-167.17491282 150.38385094 -166.51816807 142.42873613 -164 134 C-163.80132324 133.32855957 -163.60264648 132.65711914 -163.39794922 131.96533203 C-158.90935324 117.1680954 -152.07272347 104.81015831 -142 93 C-141.236875 91.989375 -140.47375 90.97875 -139.6875 89.9375 C-135.55555125 85.42118393 -130.82891386 81.74487198 -126 78 C-125.22785156 77.38898438 -124.45570312 76.77796875 -123.66015625 76.1484375 C-108.68744806 64.93810214 -87.73507561 56.33563947 -68.89453125 57.1875 C-59.65547975 57.87965411 -59.65547975 57.87965411 -51.35205078 54.71484375 C-48.51357453 51.22068685 -46.8112536 47.14964923 -45.00439453 43.05761719 C-43.36060061 39.69011715 -41.15430278 36.8469246 -38.8125 33.9375 C-38.35359375 33.36636475 -37.8946875 32.79522949 -37.421875 32.20678711 C-27.06490178 19.60994108 -14.74704325 7.37352162 0 0 Z " transform="translate(200,18)" style="fill: rgb(208, 208, 208);"/>
  <path d="M0 0 C2.75544076 0.65374183 4.17219706 2.42609008 6.16796875 4.33984375 C10.27009051 6.88719987 15.40694762 6.2770843 19.9921875 5.47265625 C22.01728068 4.35403335 23.58932972 3.10453355 25.3359375 1.59765625 C28.50780116 -0.55681718 31.28942356 -0.02104561 34.9921875 0.47265625 C36.9921875 1.47265625 36.9921875 1.47265625 37.9921875 3.47265625 C38.59994476 6.78769583 38.8775458 8.3451568 37.9921875 11.47265625 C33.85398661 16.90267646 27.52198967 20.66123272 20.9921875 22.47265625 C17.58759468 22.89688785 14.40122657 22.81248135 10.9921875 22.47265625 C10.239375 22.40175781 9.4865625 22.33085937 8.7109375 22.2578125 C2.0860605 21.21975959 -2.95312525 17.76292955 -8.0078125 13.47265625 C-10.33530595 9.98141608 -10.51080566 8.58043374 -10.0078125 4.47265625 C-7.45726166 0.43428409 -4.71244544 -0.19850961 0 0 Z " fill="#49505A" transform="translate(242.0078125,115.52734375)"/>
  <path d="M0 0 C2.65625 1.4375 2.65625 1.4375 5 4 C5.72334062 7.1804205 5.65312465 10.25220838 5.5625 13.5 C5.57345703 14.35464844 5.58441406 15.20929688 5.59570312 16.08984375 C5.54963507 20.02712716 5.50020422 22.29433556 3.18359375 25.5625 C-0.03702758 27.68269436 -2.23438693 27.53794472 -6 27 C-8.1875 25.5625 -8.1875 25.5625 -10 23 C-10.59172757 19.82287813 -10.55833755 16.72314959 -10.5 13.5 C-10.51546875 12.64535156 -10.5309375 11.79070312 -10.546875 10.91015625 C-10.50815173 4.70475165 -10.50815173 4.70475165 -8.15234375 1.4375 C-5.18029159 -0.54746406 -3.50960923 -0.57299743 0 0 Z " fill="#49505A" transform="translate(192,104)"/>
  <path d="M0 0 C2.72889055 2.02258946 4.68488828 3.6222753 5.46508789 7.03344727 C5.63695531 9.3957919 5.63319229 11.69526345 5.5625 14.0625 C5.57345703 14.86494141 5.58441406 15.66738281 5.59570312 16.49414062 C5.54825528 20.30578417 5.4498515 22.37407759 3.18359375 25.52734375 C-0.03062863 27.69507512 -2.21611958 27.54055435 -6 27 C-8.1875 25.5625 -8.1875 25.5625 -10 23 C-10.59172757 19.82287813 -10.55833755 16.72314959 -10.5 13.5 C-10.51546875 12.64535156 -10.5309375 11.79070312 -10.546875 10.91015625 C-10.50814496 4.70366797 -10.50814496 4.70366797 -8.15234375 1.44140625 C-5.1557063 -0.56541629 -3.53738038 -0.64972293 0 0 Z " fill="#484F59" transform="translate(326,104)"/>
</svg>