<svg width="32" height="32" viewBox="0 0 32 32" fill="none" xmlns="http://www.w3.org/2000/svg">
<path d="M13 17C16.314 17 19 19.686 19 23V24C19 22.343 17.657 21 16 21H0V17H13Z" fill="#7CA7C6"/>
<path d="M19 13H0V9H22C23.657 9 25 7.657 25 6V7C25 10.314 22.314 13 19 13Z" fill="#C9F9FB"/>
<path d="M19 13C22.314 13 25 15.686 25 19C25 17.895 24.105 17 23 17H0V13H19Z" fill="#7CA7C6"/>
<path d="M22 10H0V8H22C23.103 8 24 7.103 24 6C24 4.897 23.103 4 22 4C20.897 4 20 4.897 20 6H18C18 3.794 19.794 2 22 2C24.206 2 26 3.794 26 6C26 8.206 24.206 10 22 10Z" fill="#1A1A1A"/>
<path d="M29 18H28V16H29C29.552 16 30 15.551 30 15C30 14.449 29.552 14 29 14H18V12H29C30.654 12 32 13.346 32 15C32 16.654 30.654 18 29 18Z" fill="#1A1A1A"/>
<path d="M23 22H22V20H23C23.552 20 24 19.551 24 19C24 18.449 23.552 18 23 18H0V16H23C24.654 16 26 17.346 26 19C26 20.654 24.654 22 23 22Z" fill="#1A1A1A"/>
<path d="M16 28C13.794 28 12 26.206 12 24H14C14 25.103 14.897 26 16 26C17.103 26 18 25.103 18 24C18 22.897 17.103 22 16 22H4V20H16C18.206 20 20 21.794 20 24C20 26.206 18.206 28 16 28Z" fill="#1A1A1A"/>
<path d="M4 12H2V14H4V12Z" fill="#1A1A1A"/>
<path d="M16 12H6V14H16V12Z" fill="#1A1A1A"/>
<path d="M2 20H0V22H2V20Z" fill="#1A1A1A"/>
</svg>
