<svg width="32" height="32" viewBox="0 0 32 32" fill="none" xmlns="http://www.w3.org/2000/svg">
<g clip-path="url(#clip0_36_168)">
<path d="M25 20C25 15.029 20.971 11 16 11C11.029 11 7 15.029 7 20H25Z" fill="#F2B035"/>
<path d="M30 23H22V25H30V23Z" fill="#1A1A1A"/>
<path d="M10 23H2V25H10V23Z" fill="#1A1A1A"/>
<path d="M25.949 19C25.445 13.954 21.176 10 16 10C10.824 10 6.554 13.954 6.051 19H0V21H12V19H8.069C8.564 15.06 11.928 12 16 12C20.072 12 23.436 15.06 23.931 19H20V21H32V19H25.949Z" fill="#1A1A1A"/>
<path d="M13 27H4V29H13V27Z" fill="#1A1A1A"/>
<path d="M28 27H19V29H28V27Z" fill="#1A1A1A"/>
<path d="M19.707 22.293L16.707 19.293C16.316 18.902 15.684 18.902 15.293 19.293L12.293 22.293L13.707 23.707L15 22.414V32H17V22.414L18.293 23.707L19.707 22.293Z" fill="#1A1A1A"/>
<path d="M17 0H15V2H17V0Z" fill="#1A1A1A"/>
<path d="M5.39351 7.97881L3.97931 9.39301L6.80842 12.2221L8.22262 10.8079L5.39351 7.97881Z" fill="#1A1A1A"/>
<path d="M1.66317 12.8272L0.881775 14.6682L4.5647 16.2313L5.3461 14.3903L1.66317 12.8272Z" fill="#1A1A1A"/>
<path d="M2.56626 5.15009L1.15186 6.56409L2.56586 7.97849L3.98026 6.56449L2.56626 5.15009Z" fill="#1A1A1A"/>
<path d="M26.6063 7.97814L23.7772 10.8073L25.1914 12.2215L28.0205 9.39234L26.6063 7.97814Z" fill="#1A1A1A"/>
<path d="M29.4348 5.1505L28.0206 6.5647L29.4348 7.9789L30.849 6.5647L29.4348 5.1505Z" fill="#1A1A1A"/>
<path d="M17 4H15V8H17V4Z" fill="#1A1A1A"/>
<path d="M10.9328 4.79086L9.07928 5.53949L10.5773 9.24829L12.4308 8.49966L10.9328 4.79086Z" fill="#1A1A1A"/>
<path d="M30.3368 12.8257L26.6539 14.3889L27.4353 16.2299L31.1182 14.6667L30.3368 12.8257Z" fill="#1A1A1A"/>
<path d="M21.0679 4.78986L19.5691 8.49866L21.4226 9.24768L22.9214 5.53888L21.0679 4.78986Z" fill="#1A1A1A"/>
</g>
<defs>
<clipPath id="clip0_36_168">
<rect width="32" height="32" fill="white"/>
</clipPath>
</defs>
</svg>
