<?xml version="1.0" encoding="UTF-8"?>
<svg version="1.1" xmlns="http://www.w3.org/2000/svg" width="512" height="512">
<path d="M0 0 C0.80920898 0.00182281 1.61841797 0.00364563 2.45214844 0.00552368 C15.12531235 0.05344767 27.37732975 0.70160251 39.8125 3.3125 C40.65022949 3.47878906 41.48795898 3.64507812 42.35107422 3.81640625 C89.4045355 13.30972554 132.98924072 39.63578244 162.8125 77.3125 C164.00359375 78.77816406 164.00359375 78.77816406 165.21875 80.2734375 C194.20954982 116.69542335 209.02614537 161.73006264 209.0625 208.0625 C209.06317474 208.83739777 209.06384949 209.61229553 209.06454468 210.41067505 C209.01402721 247.05849896 199.93442289 287.17478301 178.61962891 317.64746094 C177.48507896 319.49419512 177.48507896 319.49419512 178.8125 322.3125 C180.89532542 324.19346149 180.89532542 324.19346149 183.4375 326.0625 C197.94020559 337.41333918 208.80446985 352.84667782 214.8125 370.3125 C214.8125 371.3025 214.8125 372.2925 214.8125 373.3125 C216.029375 373.6425 217.24625 373.9725 218.5 374.3125 C236.32859569 380.2928006 249.22480746 393.8858433 257.625 410.25 C265.52437872 426.58590642 266.72702379 446.45366398 261.19140625 463.83203125 C253.18456221 484.04194072 239.70689798 498.53141181 219.9140625 507.76953125 C207.97715908 512.50198493 196.60286277 512.74950357 183.96166992 512.71655273 C181.97440713 512.72226423 179.98714761 512.72923149 177.99989319 512.73735046 C172.63195147 512.75521243 167.26417384 512.75412642 161.89621139 512.74840808 C157.40105251 512.74530563 152.90592468 512.75142051 148.41077024 512.75744683 C137.79815296 512.77146808 127.18561622 512.76995122 116.57299805 512.75854492 C105.65641384 512.74707056 94.74007551 512.76113353 83.8235237 512.7879414 C74.42183372 512.81015734 65.02022059 512.81672238 55.61850625 512.81086498 C50.01615623 512.80750776 44.4139637 512.80982783 38.81163597 512.82711601 C33.53946183 512.84267688 28.26764945 512.83852886 22.99548912 512.81981087 C21.07154912 512.81614994 19.14758177 512.81915968 17.22366714 512.82969666 C-3.25388544 512.93320052 -20.12106965 508.79797768 -36.1875 495.3125 C-37.6725 494.2296875 -37.6725 494.2296875 -39.1875 493.125 C-52.10315976 482.11081237 -59.72464133 463.98908881 -61.1875 447.3125 C-61.99454993 434.55717435 -60.09554114 421.72113116 -54.1875 410.3125 C-54.82171875 410.18875 -55.4559375 410.065 -56.109375 409.9375 C-86.6414887 403.19007156 -115.06120988 385.92776843 -138.1875 365.3125 C-138.9606958 364.631875 -138.9606958 364.631875 -139.74951172 363.9375 C-160.88828371 345.2945993 -177.34416647 322.84186095 -189.1875 297.3125 C-189.58227539 296.47702637 -189.97705078 295.64155273 -190.38378906 294.78076172 C-208.07616763 256.78465809 -214.3480345 209.53902048 -205.1875 168.3125 C-204.88948486 166.95294189 -204.88948486 166.95294189 -204.58544922 165.56591797 C-191.86090486 109.30150949 -158.39544876 62.20554529 -110.05224609 30.93115234 C-77.03562488 10.11849235 -38.89256951 -0.18297314 0 0 Z " fill="#E3E1EB" transform="translate(228.1875,-0.3125)"/>
<path d="M0 0 C0.83136475 0.44722412 1.66272949 0.89444824 2.51928711 1.35522461 C24.90793573 13.52014234 42.12380537 31.7061596 50.4375 56.1875 C50.4375 57.1775 50.4375 58.1675 50.4375 59.1875 C51.654375 59.5175 52.87125 59.8475 54.125 60.1875 C71.95359569 66.1678006 84.84980746 79.7608433 93.25 96.125 C101.14937872 112.46090642 102.35202379 132.32866398 96.81640625 149.70703125 C88.80956221 169.91694072 75.33189798 184.40641181 55.5390625 193.64453125 C43.60215908 198.37698493 32.22786277 198.62450357 19.58666992 198.59155273 C17.59940713 198.59726423 15.61214761 198.60423149 13.62489319 198.61235046 C8.25695147 198.63021243 2.88917384 198.62912642 -2.47878861 198.62340808 C-6.97394749 198.62030563 -11.46907532 198.62642051 -15.96422976 198.63244683 C-26.57684704 198.64646808 -37.18938378 198.64495122 -47.80200195 198.63354492 C-58.71858616 198.62207056 -69.63492449 198.63613353 -80.5514763 198.6629414 C-89.95316628 198.68515734 -99.35477941 198.69172238 -108.75649375 198.68586498 C-114.35884377 198.68250776 -119.9610363 198.68482783 -125.56336403 198.70211601 C-130.83553817 198.71767688 -136.10735055 198.71352886 -141.37951088 198.69481087 C-143.30345088 198.69114994 -145.22741823 198.69415968 -147.15133286 198.70469666 C-167.62888544 198.80820052 -184.49606965 194.67297768 -200.5625 181.1875 C-201.5525 180.465625 -202.5425 179.74375 -203.5625 179 C-216.47815976 167.98581237 -224.09964133 149.86408881 -225.5625 133.1875 C-226.78609228 113.84877322 -221.33556085 96.14186982 -208.609375 81.41796875 C-207.93390625 80.68191406 -207.2584375 79.94585937 -206.5625 79.1875 C-205.88703125 78.42050781 -205.2115625 77.65351563 -204.515625 76.86328125 C-194.10449226 65.6732134 -178.32931209 56.77767971 -162.76342773 56.05810547 C-161.76770752 56.05697754 -160.7719873 56.05584961 -159.74609375 56.0546875 C-158.65232422 56.05339844 -157.55855469 56.05210937 -156.43164062 56.05078125 C-154.73297852 56.05658203 -154.73297852 56.05658203 -153 56.0625 C-151.86369141 56.05863281 -150.72738281 56.05476563 -149.55664062 56.05078125 C-148.46416016 56.05207031 -147.37167969 56.05335938 -146.24609375 56.0546875 C-145.25150146 56.05581543 -144.25690918 56.05694336 -143.23217773 56.05810547 C-140.84801988 56.17366136 -138.84064041 56.50645877 -136.5625 57.1875 C-136.47742188 56.3625 -136.39234375 55.5375 -136.3046875 54.6875 C-135.39730926 50.40849522 -133.74376472 47.02209668 -131.6875 43.1875 C-131.28966309 42.44491943 -130.89182617 41.70233887 -130.48193359 40.93725586 C-117.11066629 16.7506129 -95.0286591 -0.02675568 -68.60595703 -7.71704102 C-46.39288177 -13.51048705 -20.13107166 -10.96315861 0 0 Z " fill="#6171A3" transform="translate(392.5625,313.8125)"/>
<path d="M0 0 C1.00160156 0.49371094 2.00320313 0.98742187 3.03515625 1.49609375 C5.36321238 2.65193597 7.68471515 3.81883888 10 5 C9.33001457 9.42699231 7.74261525 13.31151357 5.9375 17.375 C5.63166992 18.06891846 5.32583984 18.76283691 5.01074219 19.4777832 C0.91751341 28.6090703 -3.78799486 37.45810269 -9 46 C-12.81799123 44.61569908 -16.24154146 42.79997614 -19.77319336 40.82617188 C-40.65640803 29.23616441 -66.73439512 26.03890003 -90.03588867 32.09130859 C-116.25352387 39.68978958 -137.57447133 56.22324926 -151 80 C-153.69340742 85.17259753 -156.15487598 90.46462793 -158 96 C-158.8156543 95.98428955 -159.63130859 95.9685791 -160.47167969 95.95239258 C-163.55808062 95.90063225 -166.64425715 95.86334786 -169.73095703 95.83520508 C-171.69969568 95.8130657 -173.66823362 95.77490648 -175.63671875 95.73632812 C-186.89733438 95.6505874 -196.92658431 97.36044838 -207 102.5 C-207.67224609 102.84111816 -208.34449219 103.18223633 -209.03710938 103.53369141 C-221.9236004 110.42056019 -232.28718366 122.13376867 -239 135 C-245.97819526 133.81315003 -252.40797125 132.00228667 -259 129.4375 C-259.89485107 129.09396484 -260.78970215 128.75042969 -261.71166992 128.39648438 C-270.76690844 124.83858447 -279.40133166 120.53556132 -288 116 C-287.05740594 114.88812065 -286.11304982 113.77773495 -285.16796875 112.66796875 C-284.64227295 112.04946045 -284.11657715 111.43095215 -283.57495117 110.79370117 C-281.49088 108.4201667 -279.23287941 106.23287941 -277 104 C-275.98579571 102.67743906 -274.98314786 101.34580759 -274 100 C-274.34933594 99.24074219 -274.69867188 98.48148437 -275.05859375 97.69921875 C-275.51363281 96.70535156 -275.96867188 95.71148437 -276.4375 94.6875 C-277.11619141 93.20830078 -277.11619141 93.20830078 -277.80859375 91.69921875 C-281.26111322 83.8772812 -281.27904749 73.43777902 -279.31640625 65.09375 C-278.37890195 62.88419629 -277.33617832 60.99181862 -276 59 C-275.56429687 58.319375 -275.12859375 57.63875 -274.6796875 56.9375 C-268.72760456 48.35088854 -261.88700754 43.26640036 -252 40 C-251.01 39.67 -250.02 39.34 -249 39 C-235.77517689 38.17543069 -225.83550844 40.05276451 -215 48 C-207.51150809 54.90256029 -202.41175853 63.98443397 -201.8828125 74.28125 C-201.87609898 76.18788837 -201.93194874 78.09456463 -202 80 C-197.71 80 -193.42 80 -189 80 C-188.59910156 79.1028125 -188.19820313 78.205625 -187.78515625 77.28125 C-181.05190895 62.41207952 -173.57230412 48.50572962 -163 36 C-162.56961426 35.48985352 -162.13922852 34.97970703 -161.69580078 34.45410156 C-139.39506695 8.37456336 -108.78811747 -7.25601179 -75 -12 C-73.70835937 -12.18433594 -72.41671875 -12.36867188 -71.0859375 -12.55859375 C-46.69706382 -15.50718783 -21.87261956 -10.89451497 0 0 Z " fill="#BBB7C1" transform="translate(414,275)"/>
<path d="M0 0 C7.06228639 5.87482231 11.61389912 11.85874448 13.8046875 20.84375 C14.13175602 22.80111881 14.13175602 22.80111881 15.3125 23.8125 C16.61179375 35.96665294 14.28672261 45.3867689 7.40234375 55.6640625 C1.36205708 63.13821162 -8.07462052 69.16238496 -17.6875 70.8125 C-29.08009679 71.77770612 -38.79850458 70.06261092 -48.0625 63.125 C-52.59872259 59.19942276 -55.78532177 55.03642081 -58.6875 49.8125 C-59.30625 48.8534375 -59.30625 48.8534375 -59.9375 47.875 C-64.51380923 39.73933915 -63.64456146 28.96503793 -62.25 20 C-58.8889636 8.2363726 -49.94439343 0.43076243 -39.61328125 -5.34765625 C-26.74259982 -10.78419163 -10.93957842 -7.86625204 0 0 Z " fill="#BCB8C1" transform="translate(334.6875,49.1875)"/>
<path d="M0 0 C4.91679224 3.73706655 9.52684149 8.63355158 10.5234375 14.91796875 C11.05206981 23.74489897 10.6119184 30.92597949 5.21484375 38.17578125 C-0.07050856 43.61981619 -6.68904398 46.66118783 -14.1640625 47.16796875 C-18.93370116 47.13203927 -23.07077815 45.63132933 -27.4765625 43.91796875 C-27.4765625 43.25796875 -27.4765625 42.59796875 -27.4765625 41.91796875 C-28.07210937 41.655 -28.66765625 41.39203125 -29.28125 41.12109375 C-33.67918317 38.71083856 -36.59748721 34.63616137 -38.8515625 30.23046875 C-40.41416361 21.94868289 -40.39297135 14.64034771 -36.1640625 7.1796875 C-27.12430353 -4.93610056 -12.82843377 -7.73749372 0 0 Z " fill="#BCB8C1" transform="translate(156.4765625,75.08203125)"/>
<path d="M0 0 C1.58264648 -0.02416992 1.58264648 -0.02416992 3.19726562 -0.04882812 C9.57736848 -0.05280327 14.41712569 0.52703129 20.1875 3.3125 C25.51048021 8.77196688 25.48369729 13.71182226 25.39453125 21.0234375 C24.91690239 28.61142805 21.94072038 33.10244269 17.00390625 38.74609375 C15.04157882 40.4383374 13.72000357 40.91731812 11.1875 41.3125 C11.1875 41.9725 11.1875 42.6325 11.1875 43.3125 C4.20381958 45.59288544 -1.82420684 46.30241382 -8.765625 43.41015625 C-15.80227644 39.63668477 -21.09899608 33.83577697 -23.8125 26.3125 C-25.37344838 18.96343868 -25.38395036 12.97920733 -21.8125 6.3125 C-15.37026472 -0.12973528 -8.602754 -0.02599019 0 0 Z " fill="#5C596E" transform="translate(227.8125,244.6875)"/>
<path d="M0 0 C6.32470406 3.2258106 10.29830013 7.26599415 12.5859375 14.12890625 C13.22376881 19.5243318 12.93128159 23.88283953 9.93359375 28.4921875 C7.06692521 31.97373566 3.6334451 35.10515245 -0.4140625 37.12890625 C-6.26881961 37.6221938 -11.60390531 37.98634913 -16.9765625 35.44140625 C-20.85145977 31.76522166 -25.12254304 27.66783736 -25.75 22.203125 C-25.8812337 10.82516315 -25.8812337 10.82516315 -21.4140625 6.12890625 C-15.06049756 0.03525988 -8.85409183 -3.1949231 0 0 Z " fill="#BCB8C1" transform="translate(193.4140625,153.87109375)"/>
<path d="M0 0 C3.87987121 2.16971439 5.96960968 4.22849679 7.8125 8.375 C8.70015569 13.96908015 8.41109325 19.11323341 5.20703125 23.90234375 C1.57933243 27.733275 -2.68886786 29.16829212 -7.8125 29.875 C-13.23642763 29.07145517 -16.09997142 26.36796088 -20.0625 22.75 C-22.94799703 18.16715178 -23.07421396 14.65345765 -22.1875 9.375 C-20.84427832 5.21101279 -18.54452141 2.30946542 -14.875 -0.0625 C-9.68495637 -2.61335123 -5.2231234 -2.30204328 0 0 Z " fill="#BCB8C1" transform="translate(113.1875,158.625)"/>
<path d="M0 0 C3.6875 0.375 3.6875 0.375 5.90234375 2.28515625 C8.41603281 6.63598348 8.12847213 10.26262245 7.9375 15.1875 C7.91945312 16.07115234 7.90140625 16.95480469 7.8828125 17.86523438 C7.83588513 20.03562543 7.76414731 22.20545519 7.6875 24.375 C7.0275 24.375 6.3675 24.375 5.6875 24.375 C5.6875 25.035 5.6875 25.695 5.6875 26.375 C2.2522952 28.66513653 0.702169 28.55342973 -3.3125 28.375 C-3.3125 27.715 -3.3125 27.055 -3.3125 26.375 C-4.3025 26.045 -5.2925 25.715 -6.3125 25.375 C-9.31567052 19.80200236 -8.96794572 13.52076752 -8.3125 7.375 C-6.59347748 3.10466803 -4.59997764 0.52075219 0 0 Z " fill="#5F5C71" transform="translate(149.3125,230.625)"/>
<path d="M0 0 C2.671875 1.390625 2.671875 1.390625 5 4 C5.62434247 7.4333129 5.47067641 10.77498591 5.3125 14.25 C5.27866211 15.65378906 5.27866211 15.65378906 5.24414062 17.0859375 C5.18530595 19.39225674 5.10317146 21.69530838 5 24 C4.34 24 3.68 24 3 24 C2.67 24.99 2.34 25.98 2 27 C-1.1875 27.8125 -1.1875 27.8125 -5 28 C-7.87539513 25.98888549 -9.69790028 24.3924036 -10.4621582 20.86987305 C-10.63750179 18.37373 -10.63297804 15.93851806 -10.5625 13.4375 C-10.57345703 12.58736328 -10.58441406 11.73722656 -10.59570312 10.86132812 C-10.5492669 6.91424869 -10.50498456 4.69781621 -8.1484375 1.44140625 C-5.17962271 -0.55039858 -3.51017652 -0.57309004 0 0 Z " fill="#5C596E" transform="translate(310,231)"/>
</svg>
