<?xml version="1.0" encoding="UTF-8"?>
<svg version="1.1" xmlns="http://www.w3.org/2000/svg" width="512" height="512">
<path d="M0 0 C2.13855961 1.85981713 4.23294219 3.76207866 6.3125 5.6875 C6.8497168 6.18088867 7.38693359 6.67427734 7.94042969 7.18261719 C32.80348038 30.27500552 48.03333914 60.50709207 54.3125 93.6875 C56.1996875 94.10708984 56.1996875 94.10708984 58.125 94.53515625 C85.70583913 100.89475659 109.70751313 114.3450514 125.3125 138.6875 C139.05948502 161.64884157 144.04185244 188.75597085 137.625 214.9375 C130.61568352 241.14823394 114.85013687 262.91538114 91.5625 277 C69.56536987 289.21175501 46.27215474 290.1402012 21.64575195 290.02807617 C19.01243165 290.0272282 16.37913636 290.02757693 13.74581909 290.02940369 C8.11594114 290.03096365 2.48616889 290.0216898 -3.14368248 290.00469017 C-11.28311125 289.98012897 -19.42248981 289.97247757 -27.56195161 289.9687262 C-40.77318213 289.96218829 -53.98435653 289.94230004 -67.19555664 289.91381836 C-80.01586632 289.88620843 -92.83616066 289.86500896 -105.65649414 289.85229492 C-106.44903021 289.85150675 -107.24156629 289.85071858 -108.0581186 289.84990653 C-112.03472348 289.84599092 -116.01132846 289.84219992 -119.98793352 289.83847082 C-152.88782983 289.80745791 -185.78765736 289.75469546 -218.6875 289.6875 C-218.75411048 290.37277456 -218.82072096 291.05804913 -218.88934994 291.76408958 C-219.02206216 293.11357657 -219.02206216 293.11357657 -219.15745544 294.49032593 C-219.28830866 295.82761277 -219.28830866 295.82761277 -219.42180538 297.19191551 C-219.7187122 299.98066618 -220.14536158 302.7199201 -220.66015625 305.4765625 C-220.83740234 306.43691406 -221.01464844 307.39726562 -221.19726562 308.38671875 C-221.37966797 309.35222656 -221.56207031 310.31773437 -221.75 311.3125 C-221.93626953 312.31667969 -222.12253906 313.32085937 -222.31445312 314.35546875 C-222.76847233 316.80018755 -223.22620544 319.24414548 -223.6875 321.6875 C-222.84669388 321.69114563 -222.00588776 321.69479126 -221.13960266 321.69854736 C-213.20892284 321.73644179 -205.27865365 321.79331077 -197.34826374 321.87140274 C-193.27130353 321.91088246 -189.19455945 321.9430683 -185.11743164 321.95849609 C-181.18142237 321.97365976 -177.24600728 322.00809918 -173.31026268 322.05580902 C-171.81005205 322.07062599 -170.3097566 322.0785412 -168.80947304 322.07938385 C-166.70477872 322.08175452 -164.6017252 322.1088371 -162.49731445 322.14160156 C-160.70195 322.15492523 -160.70195 322.15492523 -158.87031555 322.16851807 C-155.04318084 322.79256107 -153.36879517 323.92116732 -150.6875 326.6875 C-149.77190073 331.03659651 -149.90242848 333.247227 -152.03051758 337.15136719 C-152.60439209 338.02438477 -153.1782666 338.89740234 -153.76953125 339.796875 C-154.72255127 341.25009155 -154.72255127 341.25009155 -155.69482422 342.73266602 C-158.78658699 347.31727822 -161.93999796 351.85479013 -165.125 356.375 C-170.84044315 364.53283717 -176.43816271 372.75752706 -181.9375 381.0625 C-186.87762373 388.52053542 -191.90188469 395.89480583 -197.10595703 403.1706543 C-202.2099079 410.34491352 -207.04379702 417.69611808 -211.90625 425.03515625 C-216.13843749 431.4077604 -220.48434011 437.65487106 -224.98046875 443.84375 C-229.53014884 450.21152142 -233.77571941 456.79751995 -238.06835938 463.33984375 C-245.00218346 473.84646586 -245.00218346 473.84646586 -248.6875 477.6875 C-251.875 478.1875 -251.875 478.1875 -254.6875 477.6875 C-256.6875 475.6875 -256.6875 475.6875 -256.7905426 473.34675598 C-255.93227928 463.0322339 -254.0443951 452.97835552 -252.08984375 442.82421875 C-251.73193439 440.93719431 -251.37465037 439.05005117 -251.01795959 437.16279602 C-250.08546597 432.2380296 -249.1445843 427.31490341 -248.20184326 422.39208984 C-247.23813533 417.35156393 -246.28251182 412.30950617 -245.32617188 407.26757812 C-243.45444675 397.40605112 -241.57384124 387.54624086 -239.6875 377.6875 C-240.50102936 377.68163376 -241.31455872 377.67576752 -242.15274048 377.66972351 C-249.83290409 377.61173384 -257.51274561 377.53962155 -265.19262123 377.45178509 C-269.14060028 377.40712556 -273.08847718 377.36785996 -277.03662109 377.34106445 C-280.84936826 377.31498701 -284.66172145 377.27455389 -288.47422409 377.22431374 C-289.92616232 377.2076749 -291.37816866 377.19614206 -292.83018875 377.18988609 C-294.86979371 377.18021195 -296.90839757 377.15211634 -298.94775391 377.11987305 C-300.10691315 377.10876999 -301.26607239 377.09766693 -302.46035767 377.08622742 C-306.11109457 376.63516306 -308.55172366 375.58465755 -311.6875 373.6875 C-313.32852225 370.40545549 -313.29008234 367.22566134 -312.6875 363.6875 C-311.15804178 360.47600628 -309.11880362 357.72253549 -307 354.875 C-305.79509755 353.18783939 -304.59068366 351.50032977 -303.38671875 349.8125 C-302.76845215 348.95914062 -302.15018555 348.10578125 -301.51318359 347.2265625 C-298.7076673 343.3248014 -296.01258714 339.3500817 -293.3125 335.375 C-292.23617948 333.80043771 -291.15934729 332.22622507 -290.08203125 330.65234375 C-288.95048518 328.99742021 -287.81897623 327.34247129 -286.6875 325.6875 C-286.07052246 324.78531738 -285.45354492 323.88313477 -284.81787109 322.95361328 C-277.03960911 311.5763072 -269.29524746 300.17967381 -261.6875 288.6875 C-262.83798828 288.59275391 -262.83798828 288.59275391 -264.01171875 288.49609375 C-294.96917038 285.08034705 -322.5854745 268.29905878 -342 244.25 C-363.03262212 217.3820668 -369.96235324 185.40072639 -366.37402344 151.74755859 C-362.00058132 121.48579987 -344.98211029 93.08863491 -320.73046875 74.578125 C-307.290451 64.80461812 -292.77201595 57.81255479 -276.6875 53.6875 C-275.4603125 53.3678125 -274.233125 53.048125 -272.96875 52.71875 C-260.94903366 50.03666454 -248.93829518 50.38828844 -236.6875 50.6875 C-236.43871094 49.8315625 -236.18992188 48.975625 -235.93359375 48.09375 C-227.46303373 24.93911571 -204.69173382 3.92373988 -184.6875 -9.3125 C-183.7912793 -9.91118896 -183.7912793 -9.91118896 -182.87695312 -10.52197266 C-167.86865897 -20.40935863 -151.11081262 -27.061706 -133.6875 -31.3125 C-132.41132813 -31.6321875 -131.13515625 -31.951875 -129.8203125 -32.28125 C-85.30133696 -42.0896855 -34.74329403 -29.25695547 0 0 Z " fill="#C0C3C6" transform="translate(369.6875,34.3125)"/>
<path d="M0 0 C0 3.26901048 -0.41491518 4.01243019 -2.125 6.66796875 C-2.5802002 7.38774902 -3.03540039 8.1075293 -3.50439453 8.84912109 C-3.99794434 9.62078613 -4.49149414 10.39245117 -5 11.1875 C-10.23108871 19.56831125 -14.79494834 28.06786193 -19 37 C-19.53705566 38.11616699 -19.53705566 38.11616699 -20.08496094 39.25488281 C-35.27739589 70.91786737 -44.37621818 104.71248947 -44.37060547 139.87329102 C-44.37494785 142.9011395 -44.41129693 145.92748884 -44.44921875 148.95507812 C-44.58789624 173.13589209 -40.82192888 203.5541227 -27.88964844 224.82641602 C-26.6826971 227.03565926 -26.11887756 228.47261926 -26 231 C-27.88159748 235.37425395 -30.66077686 239.01152935 -33.5 242.8125 C-34.29877838 243.92453202 -35.09465263 245.0386555 -35.88769531 246.15478516 C-37.48702544 248.39920686 -39.0996237 250.63297474 -40.72460938 252.85888672 C-43.82391022 257.13738507 -46.79012997 261.49953995 -49.75 265.875 C-50.77891578 267.37961259 -51.80886113 268.88352164 -52.83984375 270.38671875 C-56.33298117 275.48543881 -59.82276185 280.58645301 -63.3125 285.6875 C-64.41274927 287.29558054 -65.51300859 288.90365421 -66.61328125 290.51171875 C-67.07516846 291.18678467 -67.53705566 291.86185059 -68.01293945 292.55737305 C-68.50153442 293.27147339 -68.50153442 293.27147339 -69 294 C-76.32869555 293.53960871 -83.13852787 292.49317075 -90.1875 290.4375 C-91.09097168 290.17573975 -91.99444336 289.91397949 -92.92529297 289.64428711 C-101.48947055 287.04479843 -109.24994087 283.44071917 -117 279 C-117.98097656 278.44570313 -118.96195313 277.89140625 -119.97265625 277.3203125 C-135.39521501 268.04458651 -148.23308382 255.05026041 -158 240 C-158.73283203 238.93845703 -158.73283203 238.93845703 -159.48046875 237.85546875 C-175.68126952 213.05477909 -179.98584544 180.7517615 -174.8659668 151.94995117 C-168.34045042 121.04866202 -150.42360397 93.29041538 -124.05224609 75.72338867 C-112.10074092 68.08119528 -99.73986065 62.5237416 -86 59 C-84.7728125 58.6803125 -83.545625 58.360625 -82.28125 58.03125 C-70.26153366 55.34916454 -58.25079518 55.70078844 -46 56 C-45.75121094 55.1440625 -45.50242188 54.288125 -45.24609375 53.40625 C-37.78091612 32.99987103 -17.46914973 12.16686038 0 0 Z " fill="#ADB0B3" transform="translate(179,29)"/>
<path d="M0 0 C2.75 0.5 2.75 0.5 3.75 1.5 C4.26042707 7.56288279 3.45281968 13.40694995 2.32421875 19.34765625 C2.17596146 20.1626207 2.02770416 20.97758514 1.87495422 21.81724548 C1.40320388 24.40042137 0.92055915 26.98141775 0.4375 29.5625 C0.12493089 31.26484189 -0.18692307 32.96731525 -0.49804688 34.66992188 C-1.67219743 41.07656485 -2.86671563 47.47931209 -4.07739258 53.87915039 C-5.58309189 61.84292286 -7.00877355 69.81309203 -8.3125 77.8125 C-8.63588839 79.78789653 -8.96010292 81.763158 -9.28515625 83.73828125 C-9.4231665 84.58430908 -9.56117676 85.43033691 -9.70336914 86.30200195 C-10.51351886 91.04168534 -11.38380794 95.77028153 -12.25 100.5 C-11.40919388 100.50364563 -10.56838776 100.50729126 -9.70210266 100.51104736 C-1.77142284 100.54894179 6.15884635 100.60581077 14.08923626 100.68390274 C18.16619647 100.72338246 22.24294055 100.7555683 26.32006836 100.77099609 C30.25607763 100.78615976 34.19149272 100.82059918 38.12723732 100.86830902 C39.62744795 100.88312599 41.1277434 100.8910412 42.62802696 100.89188385 C44.73272128 100.89425452 46.8357748 100.9213371 48.94018555 100.95410156 C50.13709518 100.96298401 51.33400482 100.97186646 52.56718445 100.98101807 C56.39431916 101.60506107 58.06870483 102.73366732 60.75 105.5 C61.66559927 109.84909651 61.53507152 112.059727 59.40698242 115.96386719 C58.83310791 116.83688477 58.2592334 117.70990234 57.66796875 118.609375 C56.71494873 120.06259155 56.71494873 120.06259155 55.74267578 121.54516602 C52.65091301 126.12977822 49.49750204 130.66729013 46.3125 135.1875 C40.59705685 143.34533717 34.99933729 151.57002706 29.5 159.875 C24.55987627 167.33303542 19.53561531 174.70730583 14.33154297 181.9831543 C9.2275921 189.15741352 4.39370298 196.50861808 -0.46875 203.84765625 C-4.70093749 210.2202604 -9.04684011 216.46737106 -13.54296875 222.65625 C-18.09264884 229.02402142 -22.33821941 235.61001995 -26.63085938 242.15234375 C-33.56468346 252.65896586 -33.56468346 252.65896586 -37.25 256.5 C-40.4375 257 -40.4375 257 -43.25 256.5 C-45.25 254.5 -45.25 254.5 -45.3530426 252.15925598 C-44.49477928 241.8447339 -42.6068951 231.79085552 -40.65234375 221.63671875 C-40.29443439 219.74969431 -39.93715037 217.86255117 -39.58045959 215.97529602 C-38.64796597 211.0505296 -37.7070843 206.12740341 -36.76434326 201.20458984 C-35.80063533 196.16406393 -34.84501182 191.12200617 -33.88867188 186.08007812 C-32.01694675 176.21855112 -30.13634124 166.35874086 -28.25 156.5 C-29.06352936 156.49413376 -29.87705872 156.48826752 -30.71524048 156.48222351 C-38.39540409 156.42423384 -46.07524561 156.35212155 -53.75512123 156.26428509 C-57.70310028 156.21962556 -61.65097718 156.18035996 -65.59912109 156.15356445 C-69.41186826 156.12748701 -73.22422145 156.08705389 -77.03672409 156.03681374 C-78.48866232 156.0201749 -79.94066866 156.00864206 -81.39268875 156.00238609 C-83.43229371 155.99271195 -85.47089757 155.96461634 -87.51025391 155.93237305 C-89.24899277 155.91571846 -89.24899277 155.91571846 -91.02285767 155.89872742 C-94.67359457 155.44766306 -97.11422366 154.39715755 -100.25 152.5 C-101.89102225 149.21795549 -101.85258234 146.03816134 -101.25 142.5 C-99.72054178 139.28850628 -97.68130362 136.53503549 -95.5625 133.6875 C-94.35759755 132.00033939 -93.15318366 130.31282977 -91.94921875 128.625 C-91.02181885 127.34496094 -91.02181885 127.34496094 -90.07568359 126.0390625 C-87.2701673 122.1373014 -84.57508714 118.1625817 -81.875 114.1875 C-80.79867948 112.61293771 -79.72184729 111.03872507 -78.64453125 109.46484375 C-77.51298518 107.80992021 -76.38147623 106.15497129 -75.25 104.5 C-74.63302246 103.59781738 -74.01604492 102.69563477 -73.38037109 101.76611328 C-71.4401043 98.92807449 -69.50104316 96.08921638 -67.5625 93.25 C-66.93126221 92.32614502 -66.30002441 91.40229004 -65.6496582 90.45043945 C-62.8117291 86.28940425 -59.98780106 82.12131722 -57.21875 77.9140625 C-56.76459717 77.22473633 -56.31044434 76.53541016 -55.8425293 75.82519531 C-55.02184782 74.57484177 -54.20522483 73.32180937 -53.39379883 72.06542969 C-51.82704831 69.67593392 -50.28392366 67.53385714 -48.2578125 65.51171875 C-45.67579342 62.92467629 -43.78612682 59.99147035 -41.8125 56.9375 C-40.92298799 55.58260198 -40.03230677 54.22847105 -39.140625 52.875 C-38.67076172 52.16085937 -38.20089844 51.44671875 -37.71679688 50.7109375 C-35.20553903 46.92565936 -32.63355726 43.18230931 -30.0625 39.4375 C-28.96474773 37.83730545 -27.867094 36.2370433 -26.76953125 34.63671875 C-26.20314941 33.81091309 -25.63676758 32.98510742 -25.05322266 32.13427734 C-23.11818378 29.30743339 -21.18921903 26.47652045 -19.26171875 23.64453125 C-18.59358154 22.66299072 -17.92544434 21.6814502 -17.23706055 20.67016602 C-15.94496638 18.77131623 -14.65343177 16.87208553 -13.36254883 14.97241211 C-12.19438245 13.25636572 -11.0226324 11.54275131 -9.84667969 9.83203125 C-8.823921 8.33824058 -7.81296629 6.83625692 -6.81738281 5.32421875 C-3.60648552 0.55484393 -3.60648552 0.55484393 0 0 Z " fill="#E8C06E" transform="translate(158.25,255.5)"/>
<path d="M0 0 C3.49844492 13.51482592 4.972574 26.6321712 0 40 C-0.26683594 40.72832031 -0.53367187 41.45664062 -0.80859375 42.20703125 C-3.66379844 48.84379592 -9.26211412 54.29213266 -16 57 C-23.90610492 58.19980825 -30.51697087 56.68413456 -37 52 C-41.95033371 46.79930458 -43.38134632 41.74352407 -43.26953125 34.75 C-42.3865885 25.74142466 -37.58518451 18.94326736 -31 13 C-22.35284373 6.39840758 -11.12352625 0 0 0 Z " fill="#BBE8EE" transform="translate(409,364)"/>
<path d="M0 0 C3.63558266 15.64598966 5.32873055 31.34365963 -2.62890625 46.11328125 C-5.99099339 50.73974304 -10.53877957 55.17959319 -16 57 C-23.42422595 57.67093005 -29.88487417 57.61117377 -36 53 C-40.86416736 48.45928111 -43.05666399 43.89486726 -43.375 37.3125 C-43.13782488 28.43160943 -39.53009033 21.51827699 -33.4453125 15.1640625 C-24.94837823 7.64441141 -11.73614566 0 0 0 Z " fill="#8DCDD7" transform="translate(460,455)"/>
<path d="M0 0 C4.05839975 15.69247904 4.66468693 31.88014586 -3.2890625 46.4296875 C-6.84341258 51.76932757 -10.92162222 54.96782594 -17 57 C-24.05337093 57.90671136 -30.22148006 57.34019838 -36 53 C-41.18535513 48.01843612 -43.14932145 44.21997328 -43.375 36.9375 C-43.26437204 27.87606474 -40.124725 22.02119821 -34.125 15.375 C-25.43771263 7.19531706 -12.09810328 0 0 0 Z " fill="#8DCDD7" transform="translate(302,364)"/>
<path d="M0 0 C3.86385846 15.45543385 4.62379719 31.09723396 -3.28515625 45.46484375 C-6.5252834 50.25491783 -10.61409483 53.82826404 -16 56 C-23.12862968 56.89579341 -29.4739907 56.9157412 -35.3515625 52.4765625 C-40.80645568 47.59042595 -43.51754383 43.29567863 -44 36 C-43.53204018 26.39927599 -38.831556 19.51582357 -32.125 12.9375 C-25.32305821 7.16510382 -9.11604359 -3.64641743 0 0 Z " fill="#BBE8EE" transform="translate(353,456)"/>
<path d="M0 0 C2.24028401 2.89761285 4.20449748 5.88266257 6.125 9 C15.10885201 23.17118079 26.07576118 35.85634314 37.41796875 48.171875 C39 50 39 50 39 51 C23.16 51 7.32 51 -9 51 C-7.57389385 41.73031003 -6.09308841 32.4899128 -4.5 23.25 C-4.28730469 22.00089844 -4.07460937 20.75179688 -3.85546875 19.46484375 C-2.73090648 12.93134396 -1.50915235 6.4558184 0 0 Z " fill="#ADB0B2" transform="translate(160,273)"/>
<path d="M0 0 C2.22187304 1.50661254 4.0212469 3.15929944 6 5 C9.92733639 6.9636682 14.70925383 6.34034247 19 6 C22.57927442 4.67434281 24.64340247 3.32916695 27.4375 0.75 C30 -1 30 -1 33.625 -0.9375 C38.54285714 0.42857143 38.54285714 0.42857143 40 3 C40.58092426 6.3564513 40.63450225 8.74170439 39.07421875 11.8359375 C34.19712092 18.42505492 25.83638339 21.40073808 18 23 C9.03847322 24.1364255 1.08750085 21.56299289 -6.28125 16.40234375 C-10.05557738 13.25449284 -11.83128265 11.51845615 -12.375 6.625 C-12 3 -12 3 -9.9375 0.5 C-6.01951428 -1.50067356 -4.19401899 -1.25084777 0 0 Z " fill="#484F59" transform="translate(242,153)"/>
<path d="M0 0 C0.66 -0.02191406 1.32 -0.04382813 2 -0.06640625 C5.27193402 0.96246363 6.272076 2.64971383 8 5.5625 C8.53811939 8.41569156 8.51500336 11.16737458 8.4375 14.0625 C8.44458984 14.80886719 8.45167969 15.55523437 8.45898438 16.32421875 C8.40673707 20.86571495 7.90416736 23.87016008 5 27.5625 C1.95016004 29.08741998 -0.6423369 28.79812548 -4 28.5625 C-6.61593153 26.73134793 -6.96989455 25.65281634 -8 22.5625 C-8.27287085 19.58801952 -8.27709694 16.61065843 -8.3125 13.625 C-8.34150391 12.81353516 -8.37050781 12.00207031 -8.40039062 11.16601562 C-8.46373927 5.22586213 -8.46373927 5.22586213 -6.23046875 2.03125 C-3.90799388 0.50191453 -2.75043138 -0.00537194 0 0 Z " fill="#4A515A" transform="translate(332,139.4375)"/>
<path d="M0 0 C3.18142457 0.7755104 4.17471277 1.77698405 6.03515625 4.49609375 C6.62703682 7.83939852 6.59321991 11.10904707 6.53515625 14.49609375 C6.550625 15.3984375 6.56609375 16.30078125 6.58203125 17.23046875 C6.54334253 23.76886165 6.54334253 23.76886165 4.22265625 27.08984375 C0.9936491 29.16563406 -1.21347977 29.03200289 -4.96484375 28.49609375 C-7.15625 27.125 -7.15625 27.125 -8.96484375 24.49609375 C-9.53742162 20.96634667 -9.4770217 17.50127258 -9.40234375 13.93359375 C-9.40943359 12.97517578 -9.41652344 12.01675781 -9.42382812 11.02929688 C-9.36017473 4.04211312 -9.36017473 4.04211312 -7.68383789 1.72680664 C-5.26724895 -0.00334885 -2.90082862 0.08383898 0 0 Z " fill="#474E58" transform="translate(181.96484375,139.50390625)"/>
</svg>
