<?xml version="1.0" encoding="UTF-8"?>
<svg version="1.1" xmlns="http://www.w3.org/2000/svg" width="512" height="512">
<path d="M0 0 C168.96 0 337.92 0 512 0 C512 168.96 512 337.92 512 512 C343.04 512 174.08 512 0 512 C0 343.04 0 174.08 0 0 Z " fill="#F8F8FD" transform="translate(0,0)"/>
<path d="M0 0 C13.42043286 8.25872792 22.82607507 19.96896089 27.25 35.125 C30.760349 50.73100872 28.35720346 65.55309185 20.4453125 79.390625 C11.82223186 92.7446565 -1.26789864 101.68595364 -16.80319977 105.06357002 C-22.25868825 105.92644775 -27.7533673 105.80348812 -33.26464844 105.80639648 C-34.62730862 105.81403179 -35.98996455 105.82246161 -37.35261536 105.83161926 C-41.02792931 105.85341906 -44.70316019 105.86234185 -48.37853146 105.86744571 C-50.67736467 105.87110248 -52.97617652 105.8773489 -55.27500153 105.8844471 C-63.30134529 105.90887801 -71.32762487 105.92198249 -79.35400391 105.92553711 C-86.82793585 105.92918134 -94.30145946 105.95915597 -101.77526641 106.00094169 C-108.20436181 106.03562308 -114.63332145 106.05108506 -121.06250978 106.05178314 C-124.89741281 106.05257582 -128.73189775 106.06131207 -132.5667038 106.08978081 C-136.16864122 106.11592963 -139.76981246 106.11818555 -143.37180138 106.10212517 C-145.32100099 106.09944355 -147.27018553 106.12150901 -149.21925354 106.14431763 C-158.74540617 106.06437333 -158.74540617 106.06437333 -161.84747314 103.15003967 C-163.97882823 99.85669443 -164.3639159 98.3467963 -163.5625 94.5 C-161.90513764 91.97009864 -161.13189051 90.93299897 -158.5625 89.5 C-154.28646639 88.75165011 -150.04777034 88.85169401 -145.71679688 88.90405273 C-144.41046295 88.8999942 -143.10412903 88.89593567 -141.75820923 88.89175415 C-138.92010325 88.88297123 -136.08260922 88.88970352 -133.24455261 88.90841484 C-128.74576209 88.93757886 -124.24749514 88.9296923 -119.74865723 88.91651917 C-110.99803373 88.89585847 -102.24766408 88.9114321 -93.49705505 88.93199158 C-82.38824981 88.95712635 -71.27959078 88.96983525 -60.17078066 88.94203526 C-55.71088316 88.93215148 -51.25162195 88.94204549 -46.79179478 88.96794307 C-43.99847776 88.98023571 -41.2053529 88.97585354 -38.41202927 88.96736526 C-36.52636242 88.96658699 -34.6407188 88.98563741 -32.75515747 89.00559998 C-21.05330277 88.93784891 -9.54964962 86.39673225 -0.5625 78.5 C8.13719438 69.48898455 11.81444527 58.78261722 11.6484375 46.3984375 C10.9090376 36.23853521 6.14142694 26.72692671 -1.1875 19.6875 C-8.96265294 13.35052564 -19.11341253 10.06022354 -29.09375 10.2265625 C-35.26327138 10.90989556 -40.7549968 13.15825149 -45 17.75 C-48.94639754 22.99323072 -51.22097837 28.6976245 -50.90625 35.359375 C-49.78629195 42.3336592 -47.16320416 48.02898941 -41.4765625 52.32421875 C-36.82632472 55.18079339 -32.07051614 56.42858527 -26.75 57.4375 C-23.91477276 58.03876371 -22.75005379 58.34086345 -20.5 60.25 C-19.22120251 63.31911398 -19.02404922 65.20198894 -19.5625 68.5 C-21.4375 71.375 -21.4375 71.375 -24.5625 73.5 C-32.80642806 75.23318415 -41.73126831 72.28186765 -48.85546875 68.1796875 C-59.0048442 60.99463641 -65.28329089 51.68144869 -67.5625 39.5 C-68.65096193 28.93932769 -67.01045288 18.99333469 -60.8125 10.1875 C-45.28763278 -8.57496515 -21.2639578 -11.44982343 0 0 Z " fill="#DCDEEF" transform="translate(235.5625,166.5)"/>
<path d="M0 0 C0.84917496 -0.00571014 1.69834991 -0.01142029 2.57325745 -0.01730347 C3.50719833 -0.01842133 4.44113922 -0.01953918 5.40338135 -0.02069092 C6.38580307 -0.02565582 7.36822479 -0.03062073 8.38041687 -0.03573608 C11.64621677 -0.05039412 14.91196794 -0.05716936 18.17779541 -0.06268311 C20.45068361 -0.06843606 22.72357179 -0.07419378 24.99645996 -0.07995605 C29.77484361 -0.09047944 34.55321039 -0.09631187 39.331604 -0.09979248 C45.42403787 -0.10524902 51.51624504 -0.12921023 57.60860825 -0.15776443 C62.31183494 -0.17649713 67.01500851 -0.18160227 71.71826935 -0.18312836 C73.96190873 -0.18613664 76.20554758 -0.19410274 78.44915009 -0.20731354 C99.09240933 -0.32008545 117.07875851 0.84587086 132.76373291 15.92950439 C133.84267822 17.02391846 133.84267822 17.02391846 134.94342041 18.14044189 C135.51834229 18.70505127 136.09326416 19.26966064 136.68560791 19.85137939 C145.97719452 29.72068123 149.85461597 43.40721459 150.31842041 56.70294189 C149.74995177 72.85692562 143.32992346 85.91487881 131.94342041 97.14044189 C131.09650635 98.00282471 131.09650635 98.00282471 130.23248291 98.88262939 C120.50183125 108.04368193 106.9923184 112.04801577 93.88092041 112.57794189 C82.24448235 112.20999128 71.97826652 107.37220237 63.90826416 99.03887939 C55.90150983 89.41717462 52.90348344 78.48786256 53.94342041 66.14044189 C56.42483204 54.7543074 62.1316323 44.69249974 71.94342041 38.14044189 C80.06496359 34.11098731 89.18886502 30.0074244 98.31842041 32.89044189 C100.42785362 34.51308282 101.16201201 35.58310531 101.94342041 38.14044189 C101.76044521 41.12903686 101.56716703 43.28068304 99.78717041 45.73419189 C97.20925375 47.70039952 94.80354424 47.9887926 91.63092041 48.57794189 C83.17989256 50.40493794 77.84351343 54.04121074 72.94342041 61.14044189 C69.8611923 67.53475919 69.87274432 74.83240201 72.19342041 81.51544189 C75.05608401 87.93355983 78.76283074 91.25006293 85.11138916 94.18731689 C94.44351137 97.32805872 104.13093399 94.87102265 112.94342041 91.14044189 C122.74204623 85.57559221 128.69167997 76.89566323 132.19342041 66.39044189 C134.51426921 55.56684704 133.06539488 44.48194671 127.62310791 34.78887939 C126.18140215 32.74843245 124.66070969 30.9538033 122.94342041 29.14044189 C122.09843994 28.21811768 122.09843994 28.21811768 121.23638916 27.27716064 C109.04823663 15.29428226 93.49857158 16.42977441 77.62701416 16.50372314 C75.27862098 16.49567284 72.9302351 16.48514889 70.5818634 16.47227478 C64.43660025 16.44386935 58.29167557 16.44312902 52.1463623 16.45013428 C42.28018355 16.45749077 32.41411164 16.42616234 22.54802132 16.38768578 C19.10678018 16.37883189 15.66577375 16.38413512 12.22453308 16.39125061 C10.12358536 16.38786762 8.02263819 16.38411879 5.92169189 16.37994385 C4.9653183 16.38563889 4.0089447 16.39133392 3.02359009 16.39720154 C2.14497818 16.39326385 1.26636627 16.38932617 0.36112976 16.38526917 C-0.39997888 16.3862325 -1.16108751 16.38719584 -1.94526005 16.38818836 C-4.37713546 16.10282723 -5.96967583 15.40473937 -8.05657959 14.14044189 C-9.97857073 11.57778704 -10.06686595 10.3084524 -9.86907959 7.07794189 C-9.04028665 4.08153665 -8.48541271 2.98635506 -6.05657959 1.14044189 C-3.78175648 0.00303034 -2.52661219 0.01016296 0 0 Z " fill="#EBECFA" transform="translate(258.05657958984375,359.85955810546875)"/>
<path d="M0 0 C0.98756287 -0.0087616 1.97512573 -0.01752319 2.99261475 -0.02655029 C6.25333742 -0.04853646 9.51270131 -0.03399354 12.7734375 -0.01708984 C15.04118103 -0.02045818 17.3089228 -0.02531094 19.57666016 -0.03158569 C24.32797443 -0.038956 29.07881852 -0.02824584 33.83007812 -0.00488281 C39.92023137 0.02360437 46.00928293 0.00720135 52.09939575 -0.02274513 C56.78174133 -0.04081342 61.46382575 -0.03506208 66.1461792 -0.02210617 C68.39166392 -0.0187709 70.63717237 -0.02286346 72.88262939 -0.03450394 C76.02135008 -0.04720428 79.15828717 -0.02784536 82.296875 0 C83.22481873 -0.01012115 84.15276245 -0.02024231 85.10882568 -0.03067017 C89.61029628 0.04330982 91.54833002 0.18802877 95.22509766 2.99990845 C97.1484375 5.64697266 97.1484375 5.64697266 97.7734375 8.64697266 C96.90700553 12.80584611 95.51994741 14.06854477 92.1484375 16.64697266 C88.86526301 17.38110602 85.65021263 17.33052043 82.296875 17.29394531 C81.30931213 17.30270691 80.32174927 17.31146851 79.30426025 17.32049561 C76.04353758 17.34248177 72.78417369 17.32793885 69.5234375 17.31103516 C67.25569397 17.31440349 64.9879522 17.31925626 62.72021484 17.32553101 C57.96890057 17.33290131 53.21805648 17.32219116 48.46679688 17.29882812 C42.37664363 17.27034094 36.28759207 17.28674397 30.19747925 17.31669044 C25.51513367 17.33475873 20.83304925 17.32900739 16.1506958 17.31605148 C13.90521108 17.31271621 11.65970263 17.31680877 9.41424561 17.32844925 C6.27552492 17.34114959 3.13858783 17.32179067 0 17.29394531 C-0.92794373 17.30406647 -1.85588745 17.31418762 -2.81195068 17.32461548 C-7.31342128 17.2506355 -9.25145502 17.10591654 -12.92822266 14.29403687 C-14.8515625 11.64697266 -14.8515625 11.64697266 -15.4765625 8.64697266 C-13.70227006 0.13036892 -7.28729396 -0.07948309 0 0 Z " fill="#DCDEEF" transform="translate(310.8515625,223.35302734375)"/>
<path d="M0 0 C0.67544861 -0.0087616 1.35089722 -0.01752319 2.04681396 -0.02655029 C4.26885132 -0.04847103 6.48888166 -0.03402082 8.7109375 -0.01708984 C10.26123434 -0.02046017 11.81152859 -0.02531459 13.36181641 -0.03158569 C16.6067019 -0.03894698 19.85089795 -0.0282766 23.09570312 -0.00488281 C27.2489408 0.02360583 31.40056301 0.00719768 35.55374146 -0.02274513 C38.75378527 -0.04083902 41.95344793 -0.03505079 45.15350342 -0.02210617 C46.68447055 -0.01877787 48.21547262 -0.02283903 49.74639893 -0.03450394 C51.8891524 -0.04724882 54.02931399 -0.02779228 56.171875 0 C57.3892334 0.00397797 58.6065918 0.00795593 59.86083984 0.01205444 C63.99807896 0.82654403 65.49260642 2.38881877 68.0859375 5.64697266 C68.7109375 8.64697266 68.7109375 8.64697266 68.0859375 11.64697266 C65.49260642 14.90512654 63.99807896 16.46740128 59.86083984 17.28189087 C58.03480225 17.28785782 58.03480225 17.28785782 56.171875 17.29394531 C55.15870209 17.30708771 55.15870209 17.30708771 54.12506104 17.32049561 C51.90302368 17.34241634 49.68299334 17.32796613 47.4609375 17.31103516 C45.91064066 17.31440548 44.36034641 17.3192599 42.81005859 17.32553101 C39.5651731 17.33289229 36.32097705 17.32222192 33.07617188 17.29882812 C28.9229342 17.27033948 24.77131199 17.28674763 20.61813354 17.31669044 C17.41808973 17.33478433 14.21842707 17.3289961 11.01837158 17.31605148 C9.48740445 17.31272318 7.95640238 17.31678434 6.42547607 17.32844925 C4.2827226 17.34119413 2.14256101 17.32173759 0 17.29394531 C-1.2173584 17.28996735 -2.4347168 17.28598938 -3.68896484 17.28189087 C-7.82620396 16.46740128 -9.32073142 14.90512654 -11.9140625 11.64697266 C-12.5390625 8.64697266 -12.5390625 8.64697266 -11.9140625 5.64697266 C-8.21836279 1.00384843 -5.87469163 0.01919675 0 0 Z " fill="#DCDEEF" transform="translate(83.9140625,223.35302734375)"/>
<path d="M0 0 C0.65710968 -0.00335861 1.31421936 -0.00671722 1.99124146 -0.01017761 C4.16882201 -0.01969529 6.34632571 -0.02163121 8.52392578 -0.02270508 C10.03606193 -0.02591741 11.54819776 -0.02928146 13.06033325 -0.03279114 C16.23293783 -0.03878467 19.40551516 -0.04063084 22.578125 -0.04003906 C26.64250211 -0.0399375 30.7067043 -0.05358263 34.77103996 -0.07081127 C37.89544476 -0.08193367 41.01980732 -0.08395819 44.14422989 -0.08342934 C45.64253466 -0.08460936 47.14084052 -0.08903243 48.63912582 -0.0967617 C50.73610396 -0.10656528 52.83270318 -0.10368216 54.9296875 -0.09765625 C56.12278534 -0.09908127 57.31588318 -0.10050629 58.5451355 -0.10197449 C61.49826112 0.13748131 63.14266003 0.53463403 65.59423828 2.14526367 C67.51622942 4.70791853 67.60452464 5.97725317 67.40673828 9.20776367 C66.57794534 12.20416892 66.0230714 13.2993505 63.59423828 15.14526367 C60.75724308 16.56376127 58.36067629 16.28037903 55.18847656 16.29052734 C54.53136688 16.29388596 53.8742572 16.29724457 53.19723511 16.30070496 C51.01965456 16.31022263 48.84215085 16.31215856 46.66455078 16.31323242 C45.15241463 16.31644475 43.6402788 16.31980881 42.12814331 16.32331848 C38.95553873 16.32931201 35.7829614 16.33115818 32.61035156 16.33056641 C28.54597445 16.33046484 24.48177227 16.34410998 20.4174366 16.36133862 C17.2930318 16.37246101 14.16866924 16.37448553 11.04424667 16.37395668 C9.5459419 16.37513671 8.04763604 16.37955977 6.54935074 16.38728905 C4.4523726 16.39709263 2.35577338 16.3942095 0.25878906 16.38818359 C-1.5308577 16.39032112 -1.5308577 16.39032112 -3.35665894 16.39250183 C-6.30978456 16.15304603 -7.95418347 15.75589331 -10.40576172 14.14526367 C-12.32775286 11.58260881 -12.41604808 10.31327418 -12.21826172 7.08276367 C-11.38946878 4.08635842 -10.83459483 2.99117684 -8.40576172 1.14526367 C-5.56876652 -0.27323393 -3.17219972 0.01014832 0 0 Z " fill="#EBECFA" transform="translate(164.40576171875,455.854736328125)"/>
<path d="M0 0 C0.65710968 -0.00335861 1.31421936 -0.00671722 1.99124146 -0.01017761 C4.16882201 -0.01969529 6.34632571 -0.02163121 8.52392578 -0.02270508 C10.03606193 -0.02591741 11.54819776 -0.02928146 13.06033325 -0.03279114 C16.23293783 -0.03878467 19.40551516 -0.04063084 22.578125 -0.04003906 C26.64250211 -0.0399375 30.7067043 -0.05358263 34.77103996 -0.07081127 C37.89544476 -0.08193367 41.01980732 -0.08395819 44.14422989 -0.08342934 C45.64253466 -0.08460936 47.14084052 -0.08903243 48.63912582 -0.0967617 C50.73610396 -0.10656528 52.83270318 -0.10368216 54.9296875 -0.09765625 C56.12278534 -0.09908127 57.31588318 -0.10050629 58.5451355 -0.10197449 C61.49826112 0.13748131 63.14266003 0.53463403 65.59423828 2.14526367 C67.51622942 4.70791853 67.60452464 5.97725317 67.40673828 9.20776367 C66.57794534 12.20416892 66.0230714 13.2993505 63.59423828 15.14526367 C60.75724308 16.56376127 58.36067629 16.28037903 55.18847656 16.29052734 C54.53136688 16.29388596 53.8742572 16.29724457 53.19723511 16.30070496 C51.01965456 16.31022263 48.84215085 16.31215856 46.66455078 16.31323242 C45.15241463 16.31644475 43.6402788 16.31980881 42.12814331 16.32331848 C38.95553873 16.32931201 35.7829614 16.33115818 32.61035156 16.33056641 C28.54597445 16.33046484 24.48177227 16.34410998 20.4174366 16.36133862 C17.2930318 16.37246101 14.16866924 16.37448553 11.04424667 16.37395668 C9.5459419 16.37513671 8.04763604 16.37955977 6.54935074 16.38728905 C4.4523726 16.39709263 2.35577338 16.3942095 0.25878906 16.38818359 C-1.5308577 16.39032112 -1.5308577 16.39032112 -3.35665894 16.39250183 C-6.30978456 16.15304603 -7.95418347 15.75589331 -10.40576172 14.14526367 C-12.32775286 11.58260881 -12.41604808 10.31327418 -12.21826172 7.08276367 C-11.38946878 4.08635842 -10.83459483 2.99117684 -8.40576172 1.14526367 C-5.56876652 -0.27323393 -3.17219972 0.01014832 0 0 Z " fill="#EBECFA" transform="translate(188.40576171875,391.854736328125)"/>
<path d="M0 0 C0.65710968 -0.00335861 1.31421936 -0.00671722 1.99124146 -0.01017761 C4.16882201 -0.01969529 6.34632571 -0.02163121 8.52392578 -0.02270508 C10.03606193 -0.02591741 11.54819776 -0.02928146 13.06033325 -0.03279114 C16.23293783 -0.03878467 19.40551516 -0.04063084 22.578125 -0.04003906 C26.64250211 -0.0399375 30.7067043 -0.05358263 34.77103996 -0.07081127 C37.89544476 -0.08193367 41.01980732 -0.08395819 44.14422989 -0.08342934 C45.64253466 -0.08460936 47.14084052 -0.08903243 48.63912582 -0.0967617 C50.73610396 -0.10656528 52.83270318 -0.10368216 54.9296875 -0.09765625 C56.12278534 -0.09908127 57.31588318 -0.10050629 58.5451355 -0.10197449 C61.49826112 0.13748131 63.14266003 0.53463403 65.59423828 2.14526367 C67.51622942 4.70791853 67.60452464 5.97725317 67.40673828 9.20776367 C66.57794534 12.20416892 66.0230714 13.2993505 63.59423828 15.14526367 C60.75724308 16.56376127 58.36067629 16.28037903 55.18847656 16.29052734 C54.53136688 16.29388596 53.8742572 16.29724457 53.19723511 16.30070496 C51.01965456 16.31022263 48.84215085 16.31215856 46.66455078 16.31323242 C45.15241463 16.31644475 43.6402788 16.31980881 42.12814331 16.32331848 C38.95553873 16.32931201 35.7829614 16.33115818 32.61035156 16.33056641 C28.54597445 16.33046484 24.48177227 16.34410998 20.4174366 16.36133862 C17.2930318 16.37246101 14.16866924 16.37448553 11.04424667 16.37395668 C9.5459419 16.37513671 8.04763604 16.37955977 6.54935074 16.38728905 C4.4523726 16.39709263 2.35577338 16.3942095 0.25878906 16.38818359 C-1.5308577 16.39032112 -1.5308577 16.39032112 -3.35665894 16.39250183 C-6.30978456 16.15304603 -7.95418347 15.75589331 -10.40576172 14.14526367 C-12.32775286 11.58260881 -12.41604808 10.31327418 -12.21826172 7.08276367 C-11.38946878 4.08635842 -10.83459483 2.99117684 -8.40576172 1.14526367 C-5.56876652 -0.27323393 -3.17219972 0.01014832 0 0 Z " fill="#EBECFA" transform="translate(84.40576171875,359.854736328125)"/>
<path d="M0 0 C1.02801727 -0.00637985 2.05603455 -0.0127597 3.11520386 -0.01933289 C4.78705246 -0.02100212 4.78705246 -0.02100212 6.49267578 -0.02270508 C7.63455353 -0.02603348 8.77643127 -0.02936188 9.95291138 -0.03279114 C12.37224931 -0.03786141 14.79159426 -0.04019943 17.2109375 -0.04003906 C20.91564456 -0.04222316 24.6200528 -0.06037149 28.32470703 -0.0793457 C30.67236226 -0.08228005 33.02001891 -0.08426457 35.36767578 -0.08520508 C36.47819305 -0.09239059 37.58871033 -0.09957611 38.73287964 -0.10697937 C40.28436203 -0.10236443 40.28436203 -0.10236443 41.8671875 -0.09765625 C43.23047684 -0.09979378 43.23047684 -0.09979378 44.62130737 -0.10197449 C47.2391251 0.16309882 48.83993956 0.7610652 51.06298828 2.14526367 C52.98497942 4.70791853 53.07327464 5.97725317 52.87548828 9.20776367 C52.04669534 12.20416892 51.4918214 13.2993505 49.06298828 15.14526367 C46.57905005 16.38723279 44.90466816 16.27885295 42.12597656 16.29052734 C41.09795929 16.2969072 40.06994202 16.30328705 39.01077271 16.30986023 C37.3389241 16.31152946 37.3389241 16.31152946 35.63330078 16.31323242 C34.49142303 16.31656082 33.34954529 16.31988922 32.17306519 16.32331848 C29.75372725 16.32838876 27.3343823 16.33072678 24.91503906 16.33056641 C21.21033201 16.3327505 17.50592376 16.35089883 13.80126953 16.36987305 C11.4536143 16.37280739 9.10595766 16.37479191 6.75830078 16.37573242 C5.64778351 16.38291794 4.53726624 16.39010345 3.39309692 16.39750671 C2.35877533 16.39443008 1.32445374 16.39135345 0.25878906 16.38818359 C-1.10450027 16.39032112 -1.10450027 16.39032112 -2.49533081 16.39250183 C-5.11314854 16.12742852 -6.713963 15.52946214 -8.93701172 14.14526367 C-10.85900286 11.58260881 -10.94729808 10.31327418 -10.74951172 7.08276367 C-9.92071878 4.08635842 -9.36584483 2.99117684 -6.93701172 1.14526367 C-4.45307349 -0.09670544 -2.7786916 0.0116744 0 0 Z " fill="#EBECFA" transform="translate(434.93701171875,391.854736328125)"/>
</svg>
