<?xml version="1.0" encoding="UTF-8"?>
<svg version="1.1" xmlns="http://www.w3.org/2000/svg" width="512" height="512">
<path d="M0 0 C1.75006096 -0.00855011 1.75006096 -0.00855011 3.53547668 -0.01727295 C5.9952404 -0.02666187 8.45501634 -0.0332324 10.91479492 -0.03710938 C14.58991868 -0.04673201 18.26446202 -0.07778128 21.93945312 -0.109375 C58.55440557 -0.27374429 105.51044242 3.34994073 133.58349609 30.13574219 C141.13937612 37.70471733 145.32132225 46.36721223 145.83203125 57.203125 C145.21751367 70.29502131 138.6469925 81.42270253 130.45703125 91.203125 C129.71453125 92.12931641 129.71453125 92.12931641 128.95703125 93.07421875 C125.66484176 97.09104777 122.04844628 100.37704704 117.99609375 103.625 C116.10793576 105.19368787 116.10793576 105.19368787 116.45703125 108.203125 C119.79516794 110.21504937 122.53273276 111.23327326 126.45703125 111.203125 C130.84652472 108.60471595 134.31408043 105.34276255 137.90820312 101.74755859 C139.30058467 100.35912769 140.74329022 99.02160426 142.19140625 97.69140625 C147.88159504 92.34580964 152.20478246 86.58572001 156.44921875 80.0859375 C160.94462546 73.63144305 160.94462546 73.63144305 164.45703125 72.63671875 C168.29067179 72.64420633 169.93990859 72.78690433 173.01953125 75.265625 C174.45323943 78.1953765 174.95479381 79.93344963 174.2421875 83.13671875 C169.1068352 96.65214844 156.50802188 107.33126093 146.45703125 117.203125 C145.12254201 118.53530143 143.78887399 119.86830274 142.45703125 121.203125 C142.93011719 121.59242187 143.40320313 121.98171875 143.890625 122.3828125 C161.1772025 137.00732446 171.20477596 154.6805721 173.45703125 177.203125 C174.78910579 197.28671031 169.10491994 216.4899183 156.45703125 232.203125 C155.88726562 232.94691406 155.3175 233.69070312 154.73046875 234.45703125 C146.47297062 244.5592896 135.41740176 251.32376987 123.45703125 256.203125 C121.43661492 257.16821707 119.44894391 258.18025093 117.45703125 259.203125 C118.84675371 262.40158171 120.43162349 264.26730636 123.01953125 266.578125 C136.78445649 280.0427246 144.27276182 299.18307848 144.81054688 318.24755859 C145.00797044 340.81217497 137.25718139 360.11991028 121.45703125 376.203125 C120.70679688 376.97785156 119.9565625 377.75257813 119.18359375 378.55078125 C112.40470302 385.11572028 104.81711239 389.04602648 96.45703125 393.203125 C86.11201647 398.39795976 80.39163098 404.44263418 75.14453125 414.765625 C68.27998072 427.72896419 59.99322461 439.04629055 50.45703125 450.203125 C49.80863281 450.96367187 49.16023438 451.72421875 48.4921875 452.5078125 C37.84119775 464.65116742 26.33770614 476.43770105 13.45703125 486.203125 C12.74708008 486.75178223 12.03712891 487.30043945 11.30566406 487.86572266 C-22.04046524 513.6307226 -22.04046524 513.6307226 -37.54296875 512.203125 C-42.9533295 510.49715539 -46.38106802 506.72012604 -49.54296875 502.203125 C-51.35037421 497.82505164 -51.70615104 494.58440568 -51.23046875 489.890625 C-51.13121094 488.84261719 -51.03195312 487.79460937 -50.9296875 486.71484375 C-50.72317463 484.83953997 -50.5137722 482.96447492 -50.28466797 481.09179688 C-47.82542191 460.50732714 -50.30918033 441.11220576 -57.3359375 421.66796875 C-58.54296875 418.203125 -58.54296875 418.203125 -58.54296875 416.203125 C-59.65414062 416.40808594 -60.7653125 416.61304688 -61.91015625 416.82421875 C-63.4127233 417.09655903 -64.91532962 417.36868273 -66.41796875 417.640625 C-67.50851563 417.84268555 -67.50851563 417.84268555 -68.62109375 418.04882812 C-80.22545633 420.13557754 -91.71708392 420.44449546 -103.48046875 420.453125 C-104.30589172 420.45379974 -105.1313147 420.45447449 -105.98175049 420.45516968 C-118.02826496 420.43951573 -129.81388595 420.24956349 -141.54296875 417.203125 C-142.22955566 417.02620117 -142.91614258 416.84927734 -143.62353516 416.66699219 C-152.70689175 414.2156925 -160.21411906 411.0730809 -166.54296875 403.953125 C-168.0945889 399.68616958 -168.19627554 395.68294299 -167.54296875 391.203125 C-165.59742777 387.38152665 -163.46328437 384.1072783 -159.54296875 382.203125 C-156.14208572 382.32245423 -153.61199616 382.56170855 -150.66796875 384.328125 C-148.94645279 387.19731826 -148.77869319 389.90298284 -148.54296875 393.203125 C-148.87296875 394.193125 -149.20296875 395.183125 -149.54296875 396.203125 C-134.61649393 402.55413048 -120.07920699 403.47439581 -104.10546875 403.453125 C-102.99339554 403.45209778 -102.99339554 403.45209778 -101.8588562 403.4510498 C-88.32205628 404.16318145 -88.32205628 404.16318145 -75.54296875 401.203125 C-82.30522045 398.72330074 -88.96637684 398.88052101 -96.10546875 398.765625 C-105.92900839 398.50116204 -115.11599556 398.18729267 -124.54296875 395.203125 C-125.62964844 394.86410156 -126.71632812 394.52507812 -127.8359375 394.17578125 C-147.28880932 387.40262424 -161.69593659 373.44638572 -171.29296875 355.515625 C-179.70982619 337.71888296 -181.92044181 316.72531875 -175.9375 297.76171875 C-171.53605477 286.53001957 -166.30451898 275.48513266 -157.33984375 267.15625 C-155.20444048 265.2774847 -155.20444048 265.2774847 -155.54296875 262.203125 C-156.18014328 262.20978683 -156.81731781 262.21644867 -157.47380066 262.22331238 C-266.79613441 263.3135205 -266.79613441 263.3135205 -294.59765625 237.35546875 C-300.5718676 230.74544775 -302.9365402 223.76602314 -302.8203125 214.984375 C-301.33763082 200.11579247 -290.4832516 188.40931996 -279.54296875 179.203125 C-265.3953489 168.24586565 -249.52304025 160.11460284 -233.54296875 152.203125 C-234.1469751 151.69160889 -234.75098145 151.18009277 -235.37329102 150.65307617 C-239.70989964 146.90534116 -243.51385204 143.484164 -246.48046875 138.515625 C-247.02574219 137.62488281 -247.57101563 136.73414063 -248.1328125 135.81640625 C-253.1738019 126.47451731 -253.66228773 116.37113276 -250.6640625 106.23046875 C-246.27563354 94.38018148 -239.36585577 85.93660061 -230.54296875 77.203125 C-229.72441406 76.36265625 -228.90585938 75.5221875 -228.0625 74.65625 C-190.73486523 38.33747022 -132.39155079 20.92548964 -82.54296875 10.203125 C-81.46708496 9.96899902 -80.39120117 9.73487305 -79.28271484 9.49365234 C-53.39430513 3.94585353 -26.49727461 0.10382935 0 0 Z M-276.04296875 198.54296875 C-280.67905043 203.47604942 -285.36594846 208.56802353 -286.73046875 215.390625 C-286.44752747 221.14376427 -284.72064156 224.19702641 -280.609375 227.984375 C-260.49002856 243.45557563 -228.11754527 246.64554782 -203.54296875 246.203125 C-204.22359375 245.5225 -204.90421875 244.841875 -205.60546875 244.140625 C-206.06308594 243.67914063 -206.52070313 243.21765625 -206.9921875 242.7421875 C-208.04190147 241.70040587 -209.10769242 240.67461877 -210.1875 239.6640625 C-223.58137169 226.90511475 -233.04416705 208.33468386 -233.62109375 189.67651367 C-233.64100559 186.87217967 -233.6303872 184.06990906 -233.60546875 181.265625 C-233.60095703 180.29560547 -233.59644531 179.32558594 -233.59179688 178.32617188 C-233.58010025 175.9517574 -233.56370961 173.57747479 -233.54296875 171.203125 C-246.86523986 171.203125 -267.00062689 189.81459709 -276.04296875 198.54296875 Z " fill="#AEA4A2" transform="translate(319.54296875,-0.203125)"/>
<path d="M0 0 C15.19396659 9.21410531 24.84903624 26.93091666 29.55078125 43.546875 C34.53865917 64.79957222 30.89137153 85.83865884 19.8203125 104.45703125 C18.15936069 106.91615213 16.41106707 109.23573388 14.55078125 111.546875 C13.69613281 112.66255859 13.69613281 112.66255859 12.82421875 113.80078125 C4.56672062 123.9030396 -6.48884824 130.66751987 -18.44921875 135.546875 C-20.46963508 136.51196707 -22.45730609 137.52400093 -24.44921875 138.546875 C-23.05949629 141.74533171 -21.47462651 143.61105636 -18.88671875 145.921875 C-5.12179351 159.3864746 2.36651182 178.52682848 2.90429688 197.59130859 C3.10172044 220.15592497 -4.64906861 239.46366028 -20.44921875 255.546875 C-21.19945312 256.32160156 -21.9496875 257.09632813 -22.72265625 257.89453125 C-29.50154698 264.45947028 -37.08913761 268.38977648 -45.44921875 272.546875 C-55.79423353 277.74170976 -61.51461902 283.78638418 -66.76171875 294.109375 C-73.62626928 307.07271419 -81.91302539 318.39004055 -91.44921875 329.546875 C-92.42181641 330.68769531 -92.42181641 330.68769531 -93.4140625 331.8515625 C-104.06505225 343.99491742 -115.56854386 355.78145105 -128.44921875 365.546875 C-129.15916992 366.09553223 -129.86912109 366.64418945 -130.60058594 367.20947266 C-163.94671524 392.9744726 -163.94671524 392.9744726 -179.44921875 391.546875 C-184.8595795 389.84090539 -188.28731802 386.06387604 -191.44921875 381.546875 C-193.25662421 377.16880164 -193.61240104 373.92815568 -193.13671875 369.234375 C-193.03746094 368.18636719 -192.93820312 367.13835937 -192.8359375 366.05859375 C-192.62942463 364.18328997 -192.4200222 362.30822492 -192.19091797 360.43554688 C-189.73167191 339.85107714 -192.21543033 320.45595576 -199.2421875 301.01171875 C-200.44921875 297.546875 -200.44921875 297.546875 -200.44921875 295.546875 C-201.56039062 295.75183594 -202.6715625 295.95679688 -203.81640625 296.16796875 C-205.3189733 296.44030903 -206.82157962 296.71243273 -208.32421875 296.984375 C-209.05125 297.11908203 -209.77828125 297.25378906 -210.52734375 297.39257812 C-222.13170633 299.47932754 -233.62333392 299.78824546 -245.38671875 299.796875 C-246.21214172 299.79754974 -247.0375647 299.79822449 -247.88800049 299.79891968 C-259.93451496 299.78326573 -271.72013595 299.59331349 -283.44921875 296.546875 C-284.13580566 296.36995117 -284.82239258 296.19302734 -285.52978516 296.01074219 C-294.61314175 293.5594425 -302.12036906 290.4168309 -308.44921875 283.296875 C-310.0008389 279.02991958 -310.10252554 275.02669299 -309.44921875 270.546875 C-307.50367777 266.72527665 -305.36953437 263.4510283 -301.44921875 261.546875 C-298.04833572 261.66620423 -295.51824616 261.90545855 -292.57421875 263.671875 C-290.85270279 266.54106826 -290.68494319 269.24673284 -290.44921875 272.546875 C-290.77921875 273.536875 -291.10921875 274.526875 -291.44921875 275.546875 C-276.52274393 281.89788048 -261.98545699 282.81814581 -246.01171875 282.796875 C-245.27033661 282.79619019 -244.52895447 282.79550537 -243.7651062 282.7947998 C-230.22830628 283.50693145 -230.22830628 283.50693145 -217.44921875 280.546875 C-224.21147045 278.06705074 -230.87262684 278.22427101 -238.01171875 278.109375 C-247.83525839 277.84491204 -257.02224556 277.53104267 -266.44921875 274.546875 C-267.53589844 274.20785156 -268.62257813 273.86882812 -269.7421875 273.51953125 C-289.19505932 266.74637424 -303.60218659 252.79013572 -313.19921875 234.859375 C-321.61607619 217.06263296 -323.82669181 196.06906875 -317.84375 177.10546875 C-313.51152639 166.05041073 -308.35939507 154.57490115 -299.24609375 146.625 C-297.01546143 144.04522523 -297.29265731 142.851002 -297.44921875 139.546875 C-296.2588501 139.42159424 -295.06848145 139.29631348 -293.84204102 139.16723633 C-243.83184685 133.87605646 -194.55513987 126.7835418 -146.44921875 111.546875 C-145.82766907 111.35009155 -145.20611938 111.15330811 -144.56573486 110.95056152 C-139.89322092 109.46717305 -135.23108156 107.95363925 -130.57421875 106.421875 C-129.36773682 106.02613281 -128.16125488 105.63039063 -126.91821289 105.22265625 C-119.49732139 102.73000178 -112.35193981 99.87656516 -105.21044922 96.68798828 C-102.44921875 95.546875 -102.44921875 95.546875 -100.44921875 95.546875 C-99.3347076 90.19841898 -99.3347076 90.19841898 -100.44921875 85.046875 C-103.50424414 82.75560596 -105.67574826 83.24395021 -109.44921875 83.546875 C-113.37638356 84.77960538 -117.10276412 86.48849956 -120.86523438 88.14648438 C-121.62642578 88.46552734 -122.38761719 88.78457031 -123.171875 89.11328125 C-123.85000244 89.41177979 -124.52812988 89.71027832 -125.22680664 90.01782227 C-130.06899006 91.17052044 -134.36523075 89.34101331 -138.73046875 87.32421875 C-139.72763916 86.87151611 -140.72480957 86.41881348 -141.75219727 85.95239258 C-142.80721436 85.46794678 -143.86223145 84.98350098 -144.94921875 84.484375 C-156.5882753 79.23798534 -168.38425917 74.70889581 -180.44921875 70.546875 C-178.03450585 68.1321621 -177.07661049 68.17359913 -173.75 67.80078125 C-172.79609375 67.68758545 -171.8421875 67.57438965 -170.859375 67.45776367 C-169.83714844 67.34279541 -168.81492187 67.22782715 -167.76171875 67.109375 C-158.54053376 65.98009137 -149.49789616 64.68964616 -140.44921875 62.546875 C-139.64677734 62.35786621 -138.84433594 62.16885742 -138.01757812 61.97412109 C-91.56497971 50.84092454 -41.53066556 32.21042656 -4.7890625 0.828125 C-2.44921875 -0.453125 -2.44921875 -0.453125 0 0 Z " fill="#817A7A" transform="translate(461.44921875,120.453125)"/>
<path d="M0 0 C2.18658927 -0.01151861 4.37315045 -0.0319684 6.55957031 -0.06152344 C27.45101307 -0.34172487 57.23426416 -0.69675269 73.60302734 14.77172852 C76.31846482 17.78030981 78.04052734 20.21812734 78.04052734 24.29516602 C76.96461971 33.13554042 70.69778874 38.9905284 64.04052734 44.29516602 C59.29993589 47.74965769 54.22880328 50.5758776 49.04052734 53.29516602 C48.33959961 53.66351563 47.63867188 54.03186523 46.91650391 54.41137695 C5.43418467 75.83059508 -42.89714548 85.07577576 -88.95947266 90.29516602 C-90.18682129 90.44469727 -91.41416992 90.59422852 -92.67871094 90.74829102 C-109.5743694 92.78799064 -126.2623511 93.58037716 -143.27197266 93.60766602 C-144.16532318 93.61125122 -145.05867371 93.61483643 -145.97909546 93.61853027 C-201.40920417 93.73866793 -201.40920417 93.73866793 -216.41577148 78.8503418 C-219.7419351 75.01992535 -221.04779748 72.41800553 -220.95947266 67.29516602 C-218.32383477 57.27555849 -208.63076988 49.92418188 -200.20947266 44.79516602 C-157.32855845 19.95844433 -106.62113087 10.38175852 -58.14697266 3.48266602 C-57.05835938 3.32468536 -57.05835938 3.32468536 -55.94775391 3.16351318 C-37.35819028 0.4911576 -18.76148601 0.0683504 0 0 Z " fill="#645F60" transform="translate(337.95947265625,26.704833984375)"/>
<path d="M0 0 C4.83162429 4.00257504 9.29223979 8.21983955 13.6328125 12.74609375 C14.86253165 14.00789244 16.09302262 15.26893931 17.32421875 16.52929688 C19.23851363 18.49323991 21.14770561 20.46121353 23.04443359 22.44213867 C24.89360299 24.36975912 26.76110724 26.27788242 28.6328125 28.18359375 C29.47986252 29.08180092 29.47986252 29.08180092 30.34402466 29.99815369 C32.12026079 31.85540065 32.12026079 31.85540065 35 34 C37.82902308 34.0294427 37.82902308 34.0294427 40 33 C39.14664063 33.91910156 38.29328125 34.83820313 37.4140625 35.78515625 C33.31518144 40.56958537 30.43317055 45.9552383 27.375 51.4375 C21.58148165 61.58249533 15.343377 70.9275515 8 80 C7.58282715 80.52996582 7.1656543 81.05993164 6.73583984 81.60595703 C-4.97764348 96.47792249 -18.84705132 110.6402019 -34 122 C-35.51485917 123.168576 -37.02912259 124.33792448 -38.54296875 125.5078125 C-69.7043803 149.40854604 -69.7043803 149.40854604 -85 148 C-90.41036075 146.29403039 -93.83809927 142.51700104 -97 138 C-98.80740546 133.62192664 -99.16318229 130.38128068 -98.6875 125.6875 C-98.53861328 124.11548828 -98.53861328 124.11548828 -98.38671875 122.51171875 C-98.18020588 120.63641497 -97.97080345 118.76134992 -97.74169922 116.88867188 C-95.28582074 96.33238958 -97.74715205 76.97068381 -104.79296875 57.5625 C-106 54 -106 54 -106 51 C-104.1746875 50.65001953 -104.1746875 50.65001953 -102.3125 50.29296875 C-69.22867965 43.5564151 -26.82814643 30.88975442 -2 7 C-0.76458664 4.55052536 -0.39285304 2.7499713 0 0 Z " fill="#615C5D" transform="translate(367,364)"/>
<path d="M0 0 C3.5 0.9375 3.5 0.9375 5.5 3.125 C6.78791783 6.74726891 6.83303881 8.30867212 5.5 11.9375 C-30.45874516 46.57531166 -96.63807846 61.47885075 -144.9375 61.25 C-146.14566376 61.24726578 -146.14566376 61.24726578 -147.37823486 61.24447632 C-159.26597575 61.19927634 -170.92868392 60.94296115 -182.5 57.9375 C-183.52988037 57.67211426 -183.52988037 57.67211426 -184.58056641 57.40136719 C-193.663923 54.9500675 -201.17115031 51.8074559 -207.5 44.6875 C-209.05162015 40.42054458 -209.15330679 36.41731799 -208.5 31.9375 C-206.55445902 28.11590165 -204.42031562 24.8416533 -200.5 22.9375 C-197.09911697 23.05682923 -194.56902741 23.29608355 -191.625 25.0625 C-189.90348404 27.93169326 -189.73572444 30.63735784 -189.5 33.9375 C-189.83 34.9275 -190.16 35.9175 -190.5 36.9375 C-175.57352518 43.28850548 -161.03623824 44.20877081 -145.0625 44.1875 C-144.32111786 44.18681519 -143.57973572 44.18613037 -142.81588745 44.1854248 C-129.27908753 44.89755645 -129.27908753 44.89755645 -116.5 41.9375 C-118.81 41.2775 -121.12 40.6175 -123.5 39.9375 C-119.80670706 37.47530471 -116.41844906 37.20131928 -112.125 36.625 C-84.34832153 32.50268479 -57.4943647 23.7882694 -31.6328125 13.00390625 C-21.78104359 8.9375 -21.78104359 8.9375 -17.5 8.9375 C-15.65890792 7.85992811 -13.8505179 6.72601762 -12.0625 5.5625 C-10.61037109 4.62277344 -10.61037109 4.62277344 -9.12890625 3.6640625 C-3.45594887 -0.06171337 -3.45594887 -0.06171337 0 0 Z " fill="#C4B9B6" transform="translate(360.5,359.0625)"/>
<path d="M0 0 C2.5625 2.0625 2.5625 2.0625 4 5 C4.49182686 13.19711425 -1.46802852 20.1493584 -6.59375 26.05859375 C-9.32331548 29.110312 -12.15582288 32.05510839 -15 35 C-15.76570312 35.82886719 -16.53140625 36.65773437 -17.3203125 37.51171875 C-21.81840986 42.25971041 -26.42043255 45.77114447 -32.015625 49.140625 C-34.68228413 50.80205137 -37.21455478 52.57426611 -39.74194336 54.4387207 C-86.77000538 89.07493917 -148.79496807 112.45608599 -207 116.9375 C-207.74789795 117.00743164 -208.4957959 117.07736328 -209.26635742 117.14941406 C-212.75172408 117.36086852 -214.59427266 117.292098 -217.46875 115.22265625 C-219.69567922 111.99020031 -219.54747955 109.83235686 -219 106 C-216.52510197 102.86512916 -214.51690083 101.20981769 -210.5324707 100.65869141 C-209.50726318 100.55733887 -208.48205566 100.45598633 -207.42578125 100.3515625 C-206.29140625 100.23522461 -205.15703125 100.11888672 -203.98828125 99.99902344 C-202.77527344 99.8755957 -201.56226563 99.75216797 -200.3125 99.625 C-190.38605438 98.55445038 -180.70732176 97.3724703 -171 95 C-170.06849121 94.77860352 -169.13698242 94.55720703 -168.17724609 94.32910156 C-127.40053903 84.55476826 -87.38917617 68.96501045 -52.66650391 45.13232422 C-51.08427053 44.05725853 -49.47047364 43.02908326 -47.85546875 42.00390625 C-44.86811084 39.90744304 -42.53213989 37.6227141 -40 35 C-39.01373907 34.08330658 -38.01987891 33.17473768 -37.01953125 32.2734375 C-27.2030379 23.41483654 -18.15051368 14.61601601 -11.375 3.1171875 C-8.72474888 -0.9635969 -4.47916336 -0.76861383 0 0 Z " fill="#D1C4C1" transform="translate(490,73)"/>
<path d="M0 0 C5.3035228 2.70179463 9.09832298 6.29496895 11 12 C11.39680449 17.25765945 10.89498146 20.56102842 8 25 C4.10194956 28.9513025 0.85801925 30.84516506 -4.75 31.3125 C-9.3330296 31.23667782 -12.45468444 29.8631789 -16 27 C-19.48814876 23.33297182 -20.29279901 20.42603649 -20.5 15.5 C-20.31360303 10.60042246 -19.35212688 7.72458542 -16 4 C-11.19603559 -0.22166569 -6.1857812 -0.76263056 0 0 Z " fill="#B4AAA9" transform="translate(115,274)"/>
<path d="M0 0 C4.28590933 2.79515826 7.22425239 5.92275717 8.875 10.875 C9.4562058 16.80329914 8.36065472 21.10678984 4.875 25.875 C1.31583921 29.24534589 -2.36471504 30.14292614 -7.1875 30.375 C-11.86785124 30.16193393 -14.58485071 29.07799222 -18.125 25.875 C-22.04361483 21.5438994 -22.77238388 18.00032116 -22.5 12.33984375 C-21.91411656 8.48888075 -20.81818423 5.7190629 -18.125 2.875 C-12.40004051 -1.31005715 -6.78823558 -2.44376481 0 0 Z " fill="#B4ABA9" transform="translate(481.125,252.125)"/>
<path d="M0 0 C2.8257197 1.69543182 3.68556639 2.91189421 4.59375 6.0546875 C5.33383828 10.28173016 5.24259722 12.48681358 3.375 16.4375 C0.84794879 19.16405526 -0.38485854 20.24334249 -4 21 C-8.48980038 20.91982499 -10.41944237 20.49221191 -13.875 17.5625 C-16.65231105 14.21338962 -17.18589974 12.86625738 -16.8125 8.625 C-16.41219919 5.39140125 -16.12786514 4.17048685 -14.125 1.5 C-9.53796559 -1.73790664 -5.2409956 -1.18467351 0 0 Z " fill="#B4ABA9" transform="translate(490,41)"/>
<path d="M0 0 C2.84124653 1.23532458 4.42097859 2.2555439 6.3125 4.6875 C7.34258338 8.15232593 7.5914722 11.45116679 7 15 C5.20636089 17.8100346 3.98119065 19.50940468 1 21 C-4.03205028 21.62343986 -7.77853376 21.82262012 -12.0625 18.9375 C-14.39595144 15.39968652 -15 13.2362654 -15 9 C-12.1938782 1.32008769 -8.14094496 -1.19767381 0 0 Z " fill="#B4ABA9" transform="translate(127,322)"/>
<path d="M0 0 C2.82424288 2.19022918 4.41508603 3.83017207 6 7 C6.2262475 12.0069555 5.69507747 15.16929766 2.4375 19.0625 C-1.66706584 21.37598256 -4.4070603 22.10486223 -9 21 C-12.42215793 19.07114735 -14.46291808 17.66857474 -15.6953125 13.83984375 C-16.29236525 10.03522038 -16.27240238 7.6401456 -14.75 4.0625 C-10.60086076 -0.82755696 -6.02177147 -0.97001422 0 0 Z " fill="#B4ABA9" transform="translate(58,270)"/>
<path d="M0 0 C2.87029869 1.79393668 4.49131638 2.98263276 6 6 C6.55512815 10.63213493 6.6364242 13.98172127 4.125 18 C0.59185943 21.32530877 -2.04661263 21.33074386 -6.73828125 21.29296875 C-10.0542278 20.86344199 -11.74987627 19.39075646 -14 17 C-15.72869779 13.54260443 -15.48966895 9.78024432 -15 6 C-11.10231905 -0.23628951 -6.98983895 -0.90541955 0 0 Z " fill="#B4AAA9" transform="translate(425,403)"/>
</svg>
